<?xml version="1.0" standalone="no"?>
<!DOCTYPE svg PUBLIC "-//W3C//DTD SVG 20010904//EN"
 "http://www.w3.org/TR/2001/REC-SVG-20010904/DTD/svg10.dtd">
<svg version="1.0" xmlns="http://www.w3.org/2000/svg"
 width="88.000000pt" height="102.000000pt" viewBox="0 0 88.000000 102.000000"
 preserveAspectRatio="xMidYMid meet">

<g transform="translate(0.000000,102.000000) scale(0.100000,-0.100000)"
fill="#ffffff" stroke="none">
<path d="M470 915 c-7 -8 -16 -12 -21 -9 -5 3 -6 -2 -3 -10 3 -9 0 -18 -7 -21
-19 -7 -14 -265 4 -265 8 0 7 -3 -2 -9 -20 -13 -3 -33 22 -25 21 6 21 5 3 -8
-17 -14 -17 -15 -2 -21 10 -4 15 -3 11 3 -3 6 -1 10 4 10 6 0 11 -5 11 -11 0
-6 8 -3 18 8 9 10 14 14 10 9 -20 -26 11 -32 35 -6 9 10 9 11 0 6 -7 -4 -13
-3 -13 3 0 5 10 13 22 17 l21 6 -24 15 c-13 8 -16 12 -6 9 19 -6 18 -14 20
141 2 70 -1 94 -12 98 -11 4 -11 8 -1 20 11 14 7 19 -12 16 -4 0 -5 5 -2 13 4
10 -4 12 -31 9 -24 -2 -34 0 -30 7 9 15 -1 12 -15 -5z m50 -8 c0 -2 -8 -11
-18 -20 -15 -14 -19 -15 -19 -2 0 8 4 12 8 9 4 -2 10 0 14 6 6 10 15 14 15 7z
m20 -37 c0 -5 -2 -10 -4 -10 -3 0 -8 5 -11 10 -3 6 -1 10 4 10 6 0 11 -4 11
-10z m-26 -258 c2 -4 -4 -8 -14 -8 -10 0 -16 4 -14 8 3 4 9 8 14 8 5 0 11 -4
14 -8z"/>
<path d="M294 888 c-3 -4 -10 -6 -15 -3 -5 3 -6 -1 -3 -10 4 -10 2 -15 -7 -13
-11 2 -15 -24 -19 -130 -6 -146 -5 -152 16 -152 10 0 12 5 8 13 -5 8 -2 8 9
-2 18 -15 23 -26 7 -16 -5 3 -10 1 -10 -5 0 -6 -5 -8 -12 -4 -9 6 -9 3 1 -9
14 -18 54 -18 86 1 11 6 16 12 10 12 -5 0 -3 5 5 10 13 8 13 11 1 22 -12 11
-12 10 -6 -2 8 -13 7 -13 -8 -1 -20 16 -22 22 -4 18 9 -1 13 30 15 126 2 98 0
127 -9 121 -9 -5 -10 -2 -6 9 3 10 3 17 -1 18 -44 5 -54 5 -58 -3z m25 -11 c8
-10 7 -14 -2 -14 -8 0 -14 6 -14 14 0 7 1 13 2 13 2 0 8 -6 14 -13z m15 -315
c2 -4 -4 -8 -14 -8 -10 0 -16 4 -14 8 3 4 9 8 14 8 5 0 11 -4 14 -8z"/>
<path d="M679 887 c-1 -6 -1 -15 0 -19 0 -4 -6 -5 -15 -1 -13 5 -13 7 -2 14 7
5 9 9 3 9 -5 -1 -19 -7 -29 -15 -17 -13 -17 -17 -5 -32 8 -9 9 -14 3 -10 -17
10 -20 -5 -23 -116 -2 -77 0 -103 13 -122 12 -19 13 -25 4 -26 -21 -2 35 -17
66 -18 19 -1 37 8 53 25 23 25 24 32 22 150 -1 113 -8 145 -23 112 -3 -7 -4
-4 -1 8 6 23 -15 46 -46 51 -10 2 -20 -3 -20 -10z"/>
<path d="M120 829 c0 -6 -7 -9 -15 -5 -13 4 -14 2 -5 -15 6 -11 15 -17 20 -14
5 3 11 2 14 -3 9 -16 -29 -9 -42 7 -12 15 -13 15 -9 0 3 -9 2 -20 -3 -25 -5
-5 -9 -43 -10 -84 -2 -104 -1 -110 11 -110 5 0 7 5 3 12 -4 7 -3 8 4 4 6 -4 9
-13 6 -20 -6 -16 8 -27 41 -31 16 -1 22 2 18 9 -4 6 1 4 11 -3 17 -14 17 -13
13 17 -5 28 -3 31 13 22 17 -9 18 -2 16 105 -1 102 -3 116 -21 129 -30 23 -44
19 -16 -4 13 -11 18 -20 12 -20 -7 0 -9 -5 -6 -10 4 -6 11 -8 16 -5 5 3 6 -1
3 -9 -5 -12 -8 -12 -23 2 -9 9 -13 19 -8 21 9 4 -22 41 -35 41 -4 0 -8 -5 -8
-11z m47 -111 c-3 -8 -6 -5 -6 6 -1 11 2 17 5 13 3 -3 4 -12 1 -19z m33 -98
c0 -5 -5 -10 -11 -10 -5 0 -7 5 -4 10 3 6 8 10 11 10 2 0 4 -4 4 -10z m-36
-12 c-3 -5 -9 -6 -14 -3 -4 3 -10 -2 -14 -10 -3 -8 -10 -15 -16 -15 -5 0 -3 8
6 18 15 18 48 27 38 10z"/>
<path d="M142 425 c-10 -12 -10 -15 0 -15 9 0 9 -3 -2 -10 -13 -9 -13 -10 0
-10 11 0 11 -3 -3 -11 -11 -6 -32 -9 -48 -7 -17 3 -34 -1 -40 -9 -9 -10 -8
-13 2 -13 12 0 12 -2 1 -9 -20 -12 12 -41 38 -34 11 3 26 0 34 -6 11 -10 16
-9 24 5 8 15 9 15 15 -1 4 -9 11 -13 17 -10 16 10 12 -1 -6 -15 -8 -8 -14 -9
-12 -3 2 6 -1 10 -7 10 -13 -2 -9 -87 4 -100 7 -7 9 -3 6 12 -2 12 0 19 5 16
4 -3 11 1 13 7 4 10 6 10 6 0 1 -8 6 -10 14 -6 7 4 9 3 4 -2 -5 -5 -14 -9 -20
-9 -5 0 -11 -10 -12 -22 -1 -17 1 -20 11 -12 10 8 11 5 7 -13 -3 -13 -3 -20 1
-16 4 3 16 -1 27 -10 11 -9 23 -17 27 -17 4 0 13 -4 21 -9 11 -7 13 -5 7 9 -6
16 -4 16 11 4 10 -8 22 -20 26 -27 7 -11 11 -11 25 0 13 11 14 11 7 -1 -5 -10
-4 -12 3 -7 7 4 18 4 25 -1 19 -12 45 -14 52 -3 3 6 11 10 16 10 6 0 7 -6 3
-12 -6 -10 -3 -9 9 0 9 8 27 12 40 10 28 -3 70 29 60 46 -3 6 -2 7 2 3 12 -10
16 -39 5 -32 -5 3 -11 1 -15 -4 -3 -6 7 -9 25 -8 19 1 30 8 31 17 0 10 2 11 6
3 2 -7 9 -13 15 -13 6 0 8 6 5 14 -4 9 2 12 18 10 13 -1 34 7 47 18 13 11 28
23 34 26 18 12 70 86 54 78 -12 -6 -11 -4 1 6 16 13 15 38 -2 38 -6 0 -7 -4
-4 -10 3 -6 -1 -7 -9 -4 -27 10 -17 23 14 19 23 -3 30 0 31 13 0 9 2 29 4 45
2 15 0 25 -5 22 -4 -3 -11 2 -14 11 -4 10 -2 13 7 9 6 -4 4 0 -7 9 -14 11 -21
12 -31 3 -7 -7 -11 -15 -9 -18 2 -3 -3 -6 -10 -6 -7 0 -13 6 -13 13 0 7 4 11
8 8 4 -2 10 -1 12 3 3 5 -44 8 -103 8 -59 0 -106 -3 -103 -7 2 -5 -1 -8 -6 -8
-6 0 -11 4 -11 10 0 11 -50 7 -69 -5 -9 -5 -8 -12 6 -28 14 -17 14 -19 1 -9
-11 9 -18 10 -23 2 -3 -5 -1 -10 5 -10 6 0 9 -4 6 -9 -3 -5 28 -7 70 -6 41 2
89 -1 105 -5 18 -5 27 -5 24 1 -4 5 -2 9 3 9 13 0 24 -27 29 -67 3 -20 0 -33
-7 -33 -6 0 -9 -4 -6 -9 4 -5 3 -11 -1 -13 -5 -1 -20 -18 -36 -36 -15 -19 -27
-28 -27 -22 0 6 -5 8 -10 5 -8 -5 -7 -11 1 -21 10 -13 8 -13 -17 -4 -23 9 -31
8 -40 -4 -6 -9 -14 -13 -17 -9 -4 3 -14 0 -24 -8 -9 -8 -14 -9 -10 -3 9 15
-43 15 -62 0 -11 -8 -13 -8 -7 1 5 9 2 11 -9 7 -8 -4 -21 -2 -28 3 -6 5 -19 9
-27 8 -8 0 -18 3 -21 8 -3 4 -16 9 -27 10 -12 1 -22 5 -22 10 0 5 -7 4 -15 -3
-8 -7 -13 -16 -10 -20 3 -4 -3 -14 -12 -21 -14 -12 -16 -12 -8 0 5 10 4 12 -3
7 -19 -11 -14 2 9 25 l21 21 -21 22 c-12 12 -18 26 -14 30 5 5 -3 5 -17 1 -23
-7 -23 -7 -7 9 20 21 23 33 4 17 -11 -8 -13 -6 -12 11 2 25 36 40 79 36 31 -3
33 2 27 51 0 6 -20 11 -43 13 -24 2 -42 8 -41 13 1 6 -5 14 -13 18 -8 4 -14
13 -14 20 0 8 4 6 11 -3 9 -12 10 -12 7 -1 -6 20 -60 24 -76 6z m372 -27 c-2
-3 -13 -6 -24 -5 -24 2 -18 13 9 13 11 0 18 -4 15 -8z m177 -49 c9 -17 13 -19
20 -8 5 8 9 10 9 4 0 -5 -5 -17 -10 -25 -5 -8 -10 -10 -10 -4 0 5 -9 20 -20
32 -12 12 -16 22 -11 22 6 0 15 -10 22 -21z m64 -87 c-3 -3 -11 0 -18 7 -9 10
-8 11 6 5 10 -3 15 -9 12 -12z m-15 -18 c0 -2 -9 0 -20 6 -11 6 -20 13 -20 16
0 2 9 0 20 -6 11 -6 20 -13 20 -16z m-54 -52 c-3 -3 1 -10 10 -16 13 -10 12
-12 -6 -13 -11 -1 -18 2 -15 7 3 4 -2 11 -11 14 -8 3 -13 10 -9 15 3 6 12 8
21 4 8 -3 12 -8 10 -11z m-431 -1 c3 -5 2 -12 -3 -15 -5 -3 -9 1 -9 9 0 17 3
19 12 6z m89 -69 c3 -5 -1 -9 -9 -9 -8 0 -12 4 -9 9 3 4 7 8 9 8 2 0 6 -4 9
-8z m54 -22 c-7 -10 -14 -17 -17 -15 -4 4 18 35 25 35 2 0 -1 -9 -8 -20z m59
4 c-3 -3 -12 -4 -19 -1 -8 3 -5 6 6 6 11 1 17 -2 13 -5z"/>
</g>
</svg>
