<?xml version="1.0" standalone="no"?>
<!DOCTYPE svg PUBLIC "-//W3C//DTD SVG 20010904//EN"
 "http://www.w3.org/TR/2001/REC-SVG-20010904/DTD/svg10.dtd">
<svg version="1.0" xmlns="http://www.w3.org/2000/svg"
 width="960.000000pt" height="756.000000pt" viewBox="0 0 960.000000 756.000000"
 preserveAspectRatio="xMidYMid meet">

<g transform="translate(0.000000,756.000000) scale(0.100000,-0.100000)"
fill="#ffffff" stroke="none">
<path d="M4375 7549 c-326 -33 -645 -129 -933 -280 -229 -120 -408 -253 -607
-453 -204 -205 -341 -391 -456 -618 l-49 -98 550 0 550 0 63 64 c171 170 387
304 613 380 557 188 1175 52 1594 -350 l97 -94 547 0 c435 0 546 3 546 13 0 7
-27 62 -61 122 -397 718 -1052 1176 -1859 1300 -125 19 -468 28 -595 14z"/>
<path d="M2131 5447 c-41 -236 -39 -631 5 -839 l6 -28 1994 0 1993 0 15 53
c73 252 71 556 -5 840 l-10 37 -1993 0 -1994 0 -11 -63z"/>
<path d="M2340 3964 c20 -51 124 -231 191 -329 99 -145 185 -249 307 -371 770
-768 1937 -955 2907 -466 310 156 606 393 818 657 128 159 327 478 327 524 0
8 -158 11 -546 11 l-546 0 -57 -58 c-216 -223 -497 -374 -821 -443 -87 -19
-138 -23 -295 -23 -193 -1 -269 7 -411 45 -275 72 -546 230 -744 433 l-44 46
-548 0 -548 0 10 -26z"/>
<path d="M8840 2485 l0 -45 45 0 45 0 0 -170 0 -170 50 0 50 0 0 170 0 170 45
0 45 0 0 45 0 45 -140 0 -140 0 0 -45z"/>
<path d="M9170 2315 l0 -215 50 0 50 0 1 158 1 157 32 -95 33 -95 48 0 48 0
33 95 32 95 1 -157 1 -158 50 0 50 0 0 215 0 216 -72 -3 -72 -3 -31 -87 c-17
-48 -33 -90 -36 -93 -4 -3 -22 36 -41 87 l-35 93 -72 3 -71 3 0 -216z"/>
<path d="M1581 1634 c-191 -51 -345 -215 -386 -412 -18 -81 -21 -668 -5 -772
22 -138 120 -285 242 -364 59 -38 162 -76 203 -76 l25 0 0 149 c0 142 -1 150
-21 156 -33 11 -88 65 -112 109 -21 40 -22 50 -22 396 0 265 3 364 13 391 15
44 69 102 111 120 l31 14 0 152 c0 116 -3 153 -12 152 -7 0 -37 -7 -67 -15z"/>
<path d="M1790 1497 l0 -155 30 -12 c43 -18 96 -83 108 -133 16 -60 23 -394
14 -583 -8 -149 -10 -164 -35 -207 -17 -29 -44 -56 -72 -73 l-45 -26 0 -149 0
-149 25 0 c13 0 54 11 91 24 169 62 296 204 341 382 25 101 26 716 0 817 -45
179 -177 331 -339 386 -29 11 -68 22 -85 26 l-33 7 0 -155z"/>
<path d="M2871 1634 c-203 -54 -364 -240 -392 -451 -7 -51 -9 -206 -7 -410 4
-277 7 -337 22 -383 59 -184 215 -332 396 -374 l60 -14 0 153 0 153 -30 12
c-40 17 -94 78 -111 126 -11 30 -14 118 -14 389 0 341 1 351 22 391 24 44 79
98 112 109 20 6 21 13 21 161 0 117 -3 154 -12 153 -7 0 -37 -7 -67 -15z"/>
<path d="M3080 1497 l0 -155 30 -12 c40 -17 95 -79 111 -126 19 -56 19 -692 0
-749 -19 -57 -56 -102 -102 -125 l-39 -20 0 -150 0 -150 25 0 c37 0 147 43
204 79 103 66 192 191 227 317 12 45 17 123 21 339 6 307 -4 455 -37 549 -61
177 -219 313 -407 351 l-33 7 0 -155z"/>
<path d="M0 1475 l0 -156 484 3 c474 3 485 3 513 24 97 72 98 205 1 264 -32
19 -52 20 -515 20 l-483 0 0 -155z"/>
<path d="M3640 1475 l0 -156 483 3 484 3 37 29 c93 71 83 212 -18 260 -30 14
-92 16 -510 16 l-476 0 0 -155z"/>
<path d="M4860 1475 l0 -154 324 -3 c310 -3 326 -4 352 -24 54 -40 68 -70 72
-150 l4 -74 162 2 161 3 -3 75 c-5 142 -51 248 -150 342 -63 60 -138 103 -217
124 -37 10 -136 14 -377 14 l-328 0 0 -155z"/>
<path d="M6476 1613 c-9 -31 -406 -1581 -406 -1587 0 -3 76 -6 169 -6 l169 0
43 175 43 175 199 0 199 0 -6 22 c-3 13 -20 83 -37 156 l-32 132 -124 0 c-114
0 -124 1 -119 18 3 9 35 136 71 282 36 146 70 281 76 302 l9 36 134 4 c118 3
138 6 163 24 97 72 98 205 1 264 -31 19 -51 20 -290 20 -236 0 -257 -1 -262
-17z"/>
<path d="M7620 1040 l0 -590 160 0 160 0 0 590 0 590 -160 0 -160 0 0 -590z"/>
<path d="M8680 1040 l0 -590 160 0 160 0 0 590 0 590 -160 0 -160 0 0 -590z"/>
<path d="M0 610 l0 -590 160 0 160 0 0 590 0 590 -160 0 -160 0 0 -590z"/>
<path d="M4010 610 l0 -590 163 2 162 3 3 588 2 587 -165 0 -165 0 0 -590z"/>
<path d="M4860 610 l0 -590 160 0 160 0 0 590 0 590 -160 0 -160 0 0 -590z"/>
<path d="M6822 1188 c3 -7 67 -273 143 -590 l139 -578 179 0 c143 0 178 3 174
13 -3 7 -72 273 -153 590 l-149 577 -168 0 c-131 0 -168 -3 -165 -12z"/>
<path d="M450 835 l0 -155 260 0 261 0 -3 153 -3 152 -257 3 -258 2 0 -155z"/>
<path d="M5414 971 c-118 -29 -158 -174 -71 -259 41 -40 81 -52 170 -52 108 0
165 -37 187 -121 22 -81 -33 -175 -115 -198 -22 -6 -93 -11 -157 -11 l-118 0
0 -155 0 -155 128 0 c71 0 155 5 188 11 236 43 414 274 390 507 -23 225 -195
403 -417 432 -85 11 -141 11 -185 1z"/>
<path d="M7620 175 l0 -155 397 0 c376 0 399 1 438 20 111 54 112 221 1 274
-30 14 -86 16 -435 16 l-401 0 0 -155z"/>
<path d="M8680 175 l0 -156 409 3 c396 3 410 4 437 24 51 38 69 71 69 129 0
60 -20 95 -75 133 -33 22 -34 22 -436 22 l-404 0 0 -155z"/>
</g>
</svg>
