<?xml version="1.0" standalone="no"?>
<!DOCTYPE svg PUBLIC "-//W3C//DTD SVG 20010904//EN"
 "http://www.w3.org/TR/2001/REC-SVG-20010904/DTD/svg10.dtd">
<svg version="1.0" xmlns="http://www.w3.org/2000/svg"
 width="1280.000000pt" height="512.000000pt" viewBox="0 0 1280.000000 512.000000"
 preserveAspectRatio="xMidYMid meet">

<g transform="translate(0.000000,512.000000) scale(0.100000,-0.100000)"
fill="#ffffff" stroke="none">
<path d="M2425 5033 c-632 -53 -1177 -308 -1610 -754 -387 -399 -621 -896
-685 -1454 -16 -135 -13 -441 5 -580 94 -721 490 -1353 1100 -1760 118 -78
379 -209 519 -260 124 -46 330 -99 466 -120 162 -26 504 -31 670 -11 659 81
1240 403 1652 916 422 527 609 1196 522 1870 -139 1076 -976 1943 -2049 2124
-181 30 -429 43 -590 29z m427 -1298 l-97 -155 -638 0 c-508 0 -637 3 -631 13
4 6 47 76 96 155 l90 142 638 0 639 0 -97 -155z m754 -457 c213 -337 434 -686
491 -775 l102 -163 -187 0 -187 0 -96 153 -96 152 -292 5 -292 5 96 152 96
152 95 3 95 3 -110 173 -110 174 -53 -84 c-30 -45 -168 -264 -308 -485 l-253
-403 -809 0 c-445 0 -807 3 -805 8 3 4 91 142 196 307 l190 300 -140 3 c-76 1
-139 5 -139 7 0 7 170 278 184 293 9 9 139 12 609 10 l597 -3 -97 -152 -97
-153 -270 0 -271 0 -80 -127 c-44 -69 -88 -139 -98 -154 l-19 -29 435 0 434 0
393 620 c216 341 397 620 401 620 4 0 182 -276 395 -612z m-2267 -1116 c45
-24 71 -74 71 -135 l0 -48 -52 3 c-47 3 -52 5 -59 31 -14 51 -25 57 -113 57
-50 0 -87 -5 -94 -12 -16 -16 -16 -120 0 -136 8 -8 47 -12 108 -12 110 0 151
-15 187 -69 20 -30 23 -47 23 -137 0 -96 -2 -104 -26 -134 -44 -52 -71 -60
-196 -60 -168 0 -215 31 -225 148 l-6 62 54 0 54 0 15 -48 15 -47 87 -3 c84
-3 88 -2 104 23 20 31 15 132 -7 146 -8 5 -56 9 -107 9 -108 0 -149 14 -183
61 -21 30 -24 45 -24 131 0 109 13 139 76 170 50 26 250 26 298 0z m580 0 c61
-31 76 -61 80 -170 4 -113 -7 -157 -49 -197 -31 -29 -33 -30 -156 -33 l-124
-4 0 -124 0 -124 -60 0 -60 0 0 335 0 335 168 0 c139 0 173 -3 201 -18z m565
4 c18 -7 44 -29 57 -47 24 -34 24 -37 24 -274 0 -232 -1 -241 -22 -271 -39
-55 -78 -66 -213 -62 -133 3 -159 14 -193 79 -16 30 -17 60 -15 266 3 216 4
233 24 260 37 50 77 63 197 63 69 0 119 -5 141 -14z m594 -6 c57 -35 72 -72
72 -178 0 -103 -10 -134 -58 -174 l-30 -25 30 -69 c16 -38 42 -99 58 -136 l29
-68 -63 0 -63 0 -54 130 -54 130 -57 0 -58 0 0 -130 0 -130 -60 0 -60 0 0 335
0 335 168 0 c149 0 171 -2 200 -20z m612 -35 l0 -55 -85 0 -85 0 0 -280 0
-280 -60 0 -60 0 0 280 0 280 -85 0 -85 0 0 55 0 55 230 0 230 0 0 -55z m455
41 c48 -20 75 -68 75 -133 l0 -53 -48 0 c-46 0 -48 1 -67 43 l-20 42 -85 3
c-98 3 -110 -5 -110 -76 0 -78 6 -82 124 -82 90 0 107 -3 136 -22 65 -44 75
-69 75 -176 0 -168 -38 -202 -225 -202 -171 0 -219 31 -223 145 l-2 60 52 3
52 3 7 -36 c10 -57 25 -65 119 -65 99 0 105 6 105 94 0 79 -10 86 -127 86
-165 0 -203 35 -203 191 0 108 15 144 71 172 45 22 243 24 294 3z m143 -18
c-9 -7 -19 -24 -21 -38 -4 -21 -4 -20 -6 7 0 17 -7 34 -13 36 -7 3 2 6 21 6
30 1 32 -1 19 -11z m48 -5 c13 -17 15 -17 27 -1 8 10 17 15 20 11 11 -10 8
-53 -3 -53 -5 0 -10 4 -10 10 0 5 -6 7 -14 4 -8 -3 -17 0 -22 7 -5 9 -9 7 -15
-7 -6 -15 -8 -12 -8 14 -1 36 6 40 25 15z"/>
<path d="M1670 1965 l0 -105 85 0 c111 0 125 12 125 106 0 101 -3 104 -115
104 l-95 0 0 -105z"/>
<path d="M2252 2058 c-15 -15 -17 -390 -2 -419 9 -16 22 -19 89 -19 114 0 111
-5 111 224 0 110 -4 195 -10 207 -9 16 -22 19 -93 19 -51 0 -88 -5 -95 -12z"/>
<path d="M2830 1975 l0 -95 84 0 c108 0 116 7 116 99 0 39 -5 72 -12 79 -8 8
-45 12 -100 12 l-88 0 0 -95z"/>
<path d="M10850 2570 c-366 -699 -666 -1275 -668 -1280 -2 -6 123 -10 335 -10
l339 0 109 225 108 225 442 0 442 0 18 -137 c10 -76 23 -176 29 -223 l11 -85
350 0 c344 0 350 0 348 20 -7 54 -404 2512 -408 2523 -3 9 -92 12 -397 12
l-393 0 -665 -1270z m924 583 c3 -16 28 -206 56 -423 27 -217 53 -412 56 -432
l6 -38 -282 0 c-179 0 -280 4 -278 10 13 40 424 910 430 910 3 0 9 -12 12 -27z"/>
<path d="M5905 3818 c-5 -19 -445 -2511 -445 -2526 0 -9 82 -12 349 -12 193 0
352 3 354 8 3 4 42 222 88 485 l83 477 486 0 486 0 43 253 c24 138 45 264 48
280 l6 27 -482 0 c-264 0 -481 3 -481 8 -1 4 16 107 37 229 l38 223 597 0
c328 0 599 4 602 8 5 8 96 523 96 543 0 5 -365 9 -950 9 -752 0 -951 -3 -955
-12z"/>
<path d="M8060 3825 c0 -7 -439 -2484 -446 -2517 l-6 -28 354 0 354 0 199
1123 c109 617 211 1191 225 1275 l27 152 -353 0 c-195 0 -354 -2 -354 -5z"/>
<path d="M8792 2573 c-122 -692 -222 -1266 -222 -1276 0 -16 22 -17 352 -15
l352 3 72 415 c40 228 78 445 84 482 l12 68 486 2 486 3 42 245 c24 135 46
260 49 278 l6 32 -484 0 -484 0 17 98 c9 53 28 157 40 229 l23 133 601 2 601
3 47 265 c25 146 47 271 47 278 1 9 -196 12 -952 12 l-952 0 -223 -1257z"/>
</g>
</svg>
