<?xml version="1.0" encoding="UTF-8"?>
<svg xmlns="http://www.w3.org/2000/svg" xmlns:xlink="http://www.w3.org/1999/xlink" width="2000px" height="210px" viewBox="0 0 1205 100" version="1.1">
<g id="surface1">
<path style=" stroke:none;fill-rule:nonzero;fill:rgb(100%,100%,100%);fill-opacity:0.576471;" d="M 54.199219 43.816406 L 110.371094 43.816406 L 110.371094 98.289062 L 87.21875 98.289062 L 84.457031 75 C 81.824219 83.332031 77.132812 89.515625 70.378906 93.550781 C 63.625 97.585938 55.382812 99.605469 45.648438 99.605469 C 36.789062 99.605469 28.921875 97.632812 22.046875 93.683594 C 15.15625 89.738281 9.761719 84.078125 5.867188 76.710938 C 1.957031 69.34375 0 60.746094 0 50.921875 C 0 35.21875 4.691406 22.808594 14.074219 13.683594 C 23.460938 4.5625 38.0625 0 57.882812 0 C 69.195312 0 79.175781 1.84375 87.824219 5.527344 C 96.453125 9.210938 103.792969 14.914062 109.84375 22.632812 C 105.898438 24.648438 98.179688 28.683594 86.691406 34.738281 L 83.402344 36.578125 C 79.984375 33.15625 75.992188 30.585938 71.433594 28.867188 C 66.871094 27.167969 62.046875 26.316406 56.960938 26.316406 C 48.542969 26.316406 42.269531 28.527344 38.148438 32.949219 C 34.027344 37.386719 31.964844 42.851562 31.964844 49.34375 C 31.964844 56.359375 34.183594 62.015625 38.625 66.316406 C 43.042969 70.613281 49.8125 72.761719 58.933594 72.761719 C 62.882812 72.761719 66.722656 72.191406 70.457031 71.050781 C 74.175781 69.914062 77.308594 67.9375 79.851562 65.132812 L 54.199219 65.132812 Z M 203.902344 98.289062 C 202.238281 93.289062 200 87.015625 197.195312 79.472656 L 155.230469 79.472656 L 148.652344 98.289062 L 115.632812 98.289062 L 152.464844 2.761719 L 200.878906 2.761719 L 237.972656 98.289062 L 203.902344 98.289062 M 189.695312 58.949219 C 186.363281 49.738281 182.941406 40.527344 179.433594 31.316406 L 176.277344 22.761719 C 173.207031 30.746094 168.691406 42.808594 162.726562 58.949219 Z M 367.945312 2.761719 L 378.207031 98.289062 L 344.136719 98.289062 L 342.03125 30.132812 L 328.875 98.289062 L 294.410156 98.289062 L 280.992188 30.65625 L 279.019531 98.289062 L 244.945312 98.289062 L 255.207031 2.761719 L 299.933594 2.761719 L 311.378906 65 L 321.378906 2.761719 Z M 419.777344 74.210938 C 453.101562 74.035156 477.265625 73.550781 492.261719 72.761719 C 491.648438 76.359375 491.277344 80.0625 491.15625 83.867188 C 491.015625 87.691406 490.945312 92.5 490.945312 98.289062 L 388.730469 98.289062 C 389.433594 81.273438 389.785156 65.351562 389.785156 50.527344 C 389.785156 35.703125 389.433594 19.78125 388.730469 2.761719 L 490.945312 2.761719 L 490.945312 26.578125 L 419.777344 26.578125 L 419.777344 39.210938 C 423.988281 39.296875 430.214844 39.34375 438.457031 39.34375 C 452.402344 39.34375 466.828125 39.078125 481.738281 38.550781 L 481.738281 61.183594 C 466.828125 60.65625 452.402344 60.394531 438.457031 60.394531 C 430.214844 60.394531 423.988281 60.4375 419.777344 60.527344 Z M 560.667969 99.605469 C 540.847656 99.605469 526.246094 95.394531 516.859375 86.972656 C 507.476562 78.550781 502.785156 66.535156 502.785156 50.921875 C 502.785156 35.21875 507.476562 22.808594 516.859375 13.683594 C 526.246094 4.5625 540.847656 0 560.667969 0 C 588.378906 0 606.929688 9.515625 616.3125 28.550781 C 608.417969 31.273438 599.167969 35.351562 588.554688 40.789062 C 586.011719 35.878906 582.003906 32.238281 576.53125 29.867188 C 571.042969 27.5 565.445312 26.316406 559.746094 26.316406 C 551.328125 26.316406 545.054688 28.527344 540.933594 32.949219 C 536.8125 37.386719 534.75 42.851562 534.75 49.34375 C 534.75 56.359375 536.96875 62.078125 541.40625 66.5 C 545.828125 70.9375 552.597656 73.15625 561.71875 73.15625 C 569 73.15625 574.785156 71.949219 579.085938 69.527344 C 583.382812 67.121094 586.539062 63.289062 588.554688 58.027344 C 595.746094 61.886719 604.957031 66.226562 616.179688 71.050781 C 611.796875 81.667969 604.472656 89.078125 594.210938 93.289062 C 583.953125 97.5 572.769531 99.605469 560.667969 99.605469 Z M 657.882812 74.210938 C 691.207031 74.035156 715.371094 73.550781 730.367188 72.761719 C 729.753906 76.359375 729.382812 80.0625 729.261719 83.867188 C 729.121094 87.691406 729.050781 92.5 729.050781 98.289062 L 626.835938 98.289062 C 627.539062 81.273438 627.890625 65.351562 627.890625 50.527344 C 627.890625 35.703125 627.539062 19.78125 626.835938 2.761719 L 729.050781 2.761719 L 729.050781 26.578125 L 657.882812 26.578125 L 657.882812 39.210938 C 662.09375 39.296875 668.320312 39.34375 676.5625 39.34375 C 690.507812 39.34375 704.933594 39.078125 719.84375 38.550781 L 719.84375 61.183594 C 704.933594 60.65625 690.507812 60.394531 676.5625 60.394531 C 668.320312 60.394531 662.09375 60.4375 657.882812 60.527344 Z M 851.261719 2.894531 C 850.648438 17.71875 850.339844 33.597656 850.339844 50.527344 C 850.339844 67.542969 850.648438 83.464844 851.261719 98.289062 L 804.167969 98.289062 L 772.332031 26.449219 L 774.699219 98.289062 L 740.890625 98.289062 C 741.59375 81.273438 741.941406 65.351562 741.941406 50.527344 C 741.941406 35.789062 741.59375 19.914062 740.890625 2.894531 L 789.300781 2.894531 L 821.269531 76.710938 L 819.03125 2.894531 Z M 974.789062 30.394531 C 961.019531 29.957031 947.644531 29.691406 934.664062 29.605469 L 934.664062 98.289062 L 901.777344 98.289062 L 901.777344 29.605469 C 888.710938 29.691406 875.378906 29.957031 861.785156 30.394531 L 861.785156 2.761719 L 974.789062 2.761719 Z M 1016.355469 74.210938 C 1049.683594 74.035156 1073.84375 73.550781 1088.839844 72.761719 C 1088.226562 76.359375 1087.859375 80.0625 1087.734375 83.867188 C 1087.597656 87.691406 1087.527344 92.5 1087.527344 98.289062 L 985.3125 98.289062 C 986.011719 81.273438 986.363281 65.351562 986.363281 50.527344 C 986.363281 35.703125 986.011719 19.78125 985.3125 2.761719 L 1087.527344 2.761719 L 1087.527344 26.578125 L 1016.355469 26.578125 L 1016.355469 39.210938 C 1020.566406 39.296875 1026.792969 39.34375 1035.039062 39.34375 C 1048.980469 39.34375 1063.40625 39.078125 1078.316406 38.550781 L 1078.316406 61.183594 C 1063.40625 60.65625 1048.980469 60.394531 1035.039062 60.394531 C 1026.792969 60.394531 1020.566406 60.4375 1016.355469 60.527344 Z M 1205 34.605469 C 1205 42.238281 1203.140625 48.683594 1199.421875 53.949219 C 1195.6875 59.210938 1189.300781 63.027344 1180.269531 65.394531 C 1181.320312 66.796875 1182.066406 67.894531 1182.503906 68.683594 L 1203.816406 98.289062 L 1168.035156 98.289062 C 1164.175781 91.097656 1158.082031 80.921875 1149.75 67.761719 L 1130.410156 67.761719 L 1130.410156 98.289062 L 1099.363281 98.289062 C 1100.066406 81.273438 1100.417969 65.351562 1100.417969 50.527344 C 1100.417969 35.703125 1100.066406 19.78125 1099.363281 2.761719 L 1130.410156 2.761719 L 1130.410156 2.894531 L 1157.378906 2.894531 C 1175.09375 2.894531 1187.460938 5.746094 1194.476562 11.449219 C 1201.492188 17.148438 1205 24.867188 1205 34.605469 M 1130.410156 28.15625 L 1130.410156 43.15625 L 1148.171875 43.15625 C 1155.625 43.15625 1161.265625 42.914062 1165.085938 42.421875 C 1168.894531 41.949219 1171.542969 41.183594 1173.035156 40.132812 C 1174.523438 39.078125 1175.269531 37.542969 1175.269531 35.527344 C 1175.269531 33.597656 1174.566406 32.105469 1173.164062 31.050781 C 1171.761719 30 1169.128906 29.253906 1165.273438 28.816406 C 1161.414062 28.378906 1155.710938 28.15625 1148.171875 28.15625 Z M 1130.410156 28.15625 "/>
</g>
</svg>
