<?xml version="1.0" standalone="no"?>
<!DOCTYPE svg PUBLIC "-//W3C//DTD SVG 20010904//EN"
 "http://www.w3.org/TR/2001/REC-SVG-20010904/DTD/svg10.dtd">
<svg version="1.0" xmlns="http://www.w3.org/2000/svg"
 width="1254.000000pt" height="1254.000000pt" viewBox="0 0 1254.000000 1254.000000"
 preserveAspectRatio="xMidYMid meet">

<g transform="translate(0.000000,1254.000000) scale(0.100000,-0.100000)"
fill="#fff" stroke="none">
<path d="M4765 11908 c-98 -308 -445 -603 -1083 -922 -254 -127 -533 -253
-1152 -520 -303 -131 -295 -127 -298 -156 -6 -49 110 -309 149 -333 23 -14
968 405 1367 608 645 327 974 599 1083 895 40 109 49 231 25 335 -17 70 -52
155 -64 155 -4 0 -16 -28 -27 -62z"/>
<path d="M4949 11518 c-84 -387 -412 -680 -1185 -1063 -268 -133 -467 -223
-1111 -506 l-193 -84 63 -63 c72 -74 241 -203 325 -249 l58 -32 320 158 c823
407 1219 646 1455 881 262 260 373 552 315 827 -14 64 -43 147 -47 131z"/>
<path d="M6273 11075 c-642 -81 -1228 -412 -1610 -907 -124 -161 -263 -420
-339 -628 -21 -58 -39 -106 -40 -108 -3 -4 -108 -31 -224 -56 -130 -30 -349
-85 -536 -136 -100 -28 -195 -50 -212 -50 -45 0 -300 112 -487 214 -338 185
-597 456 -664 697 -9 31 -20 58 -26 59 -5 1 -20 -26 -32 -61 -18 -51 -22 -87
-22 -174 -1 -173 34 -288 136 -445 92 -141 306 -339 463 -427 28 -15 50 -31
50 -34 0 -3 -28 -14 -62 -24 -35 -10 -69 -23 -76 -28 -26 -20 -262 165 -368
289 -112 130 -181 258 -213 394 l-18 75 -17 -40 c-50 -118 -70 -314 -45 -437
53 -261 258 -519 542 -684 40 -23 69 -47 72 -59 2 -11 1 -267 -3 -570 l-7
-550 -167 -5 -167 -5 -36 -35 c-68 -65 -65 -32 -65 -649 0 -371 4 -569 11
-588 11 -31 53 -78 84 -96 13 -8 96 -14 225 -17 l205 -5 8 -50 c84 -533 231
-1083 403 -1510 112 -278 221 -510 352 -745 377 -676 886 -1263 1517 -1752
367 -284 856 -573 1265 -748 231 -99 359 -142 405 -137 57 6 349 124 560 227
569 278 1070 631 1518 1070 194 190 330 337 454 490 82 102 278 364 311 417
16 26 35 42 46 43 18 0 548 -222 571 -240 6 -4 27 -13 47 -19 37 -12 39 -12
135 52 54 35 116 79 138 96 71 57 176 164 168 172 -7 6 -263 118 -658 289 -66
28 -124 55 -129 60 -7 7 39 100 50 100 5 0 265 -108 529 -220 94 -40 200 -85
237 -100 l68 -29 19 25 c57 72 167 330 156 364 -4 12 -112 64 -338 161 -183
78 -369 158 -414 178 -45 19 -85 41 -88 48 -2 8 12 53 32 101 40 97 51 128
128 352 126 367 233 787 294 1150 l26 155 165 5 c173 5 202 12 243 58 45 49
46 69 46 627 0 292 -4 548 -9 569 -10 45 -34 81 -74 110 -24 18 -46 22 -174
26 l-147 5 -2 135 c-9 536 -53 1455 -71 1472 -4 3 -47 18 -97 33 -49 15 -153
46 -230 70 -127 39 -338 100 -640 183 -146 41 -518 132 -537 132 -8 0 -37 7
-64 15 -48 14 -49 15 -73 82 -123 346 -312 651 -556 899 -342 346 -809 580
-1315 659 -146 23 -482 28 -627 10z m-101 -355 c-51 -23 -193 -163 -274 -270
-48 -64 -182 -270 -190 -292 -2 -4 -55 -21 -120 -37 -149 -37 -294 -96 -428
-172 -146 -83 -140 -77 -152 -156 -13 -87 -13 -455 0 -551 l10 -73 -63 -83
c-80 -107 -162 -252 -220 -391 -25 -60 -48 -111 -51 -114 -2 -2 -49 4 -104 14
l-100 18 0 124 c0 314 67 599 210 892 201 411 506 718 920 926 176 88 468 182
575 184 29 1 28 0 -13 -19z m898 -10 c538 -141 962 -452 1240 -910 189 -312
287 -657 293 -1035 l2 -150 -50 -13 c-27 -7 -72 -13 -98 -15 l-49 -2 -27 75
c-61 163 -147 323 -239 444 l-45 58 14 122 c15 141 18 330 5 470 -10 117 -6
113 -159 204 -123 73 -275 139 -411 177 l-96 28 -47 78 c-119 200 -296 396
-439 486 -27 17 -21 16 106 -17z m-195 -80 c55 -12 111 -29 125 -37 76 -49
253 -263 328 -395 l26 -46 -114 -119 c-63 -65 -154 -167 -204 -226 -85 -103
-91 -108 -120 -103 -129 24 -495 24 -672 1 -48 -7 -51 -6 -69 21 -38 59 -156
192 -265 301 l-112 112 46 78 c70 115 147 219 229 305 l72 76 95 22 c149 33
214 39 380 35 105 -3 187 -11 255 -25z m-78 -1011 c74 -6 137 -17 150 -25 32
-20 246 -291 337 -426 l77 -114 -36 -104 c-69 -200 -169 -405 -271 -559 l-46
-69 -111 -18 c-91 -16 -166 -19 -402 -19 -159 0 -307 4 -327 8 -34 7 -45 19
-112 120 -94 141 -181 321 -242 503 l-47 142 93 128 c109 152 217 287 292 366
l53 56 90 7 c50 3 95 8 100 10 23 8 284 4 402 -6z m2533 -605 c109 -29 476
-133 776 -221 l51 -15 7 -102 c25 -380 36 -665 36 -958 l0 -338 -209 0 -208 0
-7 478 c-4 262 -10 509 -14 547 l-7 70 -215 72 c-118 39 -311 97 -427 129
l-213 59 0 70 c0 38 -7 124 -15 190 -8 66 -15 123 -15 126 0 7 238 -49 460
-107z m-5123 84 c-8 -30 -27 -226 -30 -302 -2 -54 -4 -60 -27 -67 -14 -4 -117
-32 -230 -63 -215 -58 -620 -182 -632 -195 -13 -12 -29 -402 -31 -751 l-2
-335 -219 -3 -219 -2 6 467 c5 418 13 612 32 839 l6 70 127 38 c357 108 584
170 1102 305 105 27 124 27 117 -1z m1169 -43 c153 -25 282 -45 285 -45 4 0
22 -45 39 -101 66 -211 189 -462 300 -610 46 -61 48 -66 36 -94 -33 -78 -152
-330 -199 -420 l-52 -100 -95 -3 c-170 -5 -354 27 -517 91 -102 39 -103 40
-142 101 -90 142 -179 343 -236 530 l-36 120 32 80 c41 104 100 223 152 306
62 100 130 190 142 190 6 0 137 -20 291 -45z m2720 -42 c70 -105 179 -319 213
-420 l25 -72 -28 -97 c-52 -186 -157 -431 -241 -564 -30 -47 -88 -78 -231
-123 -134 -42 -397 -71 -471 -51 -16 5 -45 58 -129 242 -59 131 -116 258 -126
283 l-19 46 61 94 c104 161 205 374 265 559 15 47 32 90 37 95 9 10 485 91
549 94 35 1 39 -2 95 -86z m-3912 -493 c22 -360 146 -750 347 -1088 l31 -52
-604 2 -603 3 -3 205 c-5 266 15 802 30 811 31 19 739 227 779 228 13 1 17
-17 23 -109z m4836 80 c95 -24 466 -136 575 -173 l70 -24 7 -124 c5 -68 9
-297 10 -509 l3 -385 -577 -3 c-592 -2 -602 -2 -569 33 5 6 31 51 58 100 174
315 276 664 299 1014 6 86 9 101 23 97 9 -3 54 -15 101 -26z m-4492 -166 c86
-395 236 -721 446 -966 36 -43 66 -80 66 -83 0 -3 -25 -5 -55 -5 l-55 0 -49
68 c-78 106 -189 302 -238 420 -76 184 -137 423 -157 624 -10 97 17 60 42 -58z
m4072 81 c0 -56 -34 -248 -66 -372 -62 -246 -166 -465 -322 -685 l-56 -78 -53
0 c-46 0 -69 11 -45 22 15 7 141 166 184 233 63 97 152 278 205 414 45 117
107 338 119 426 3 28 8 53 11 58 9 16 23 6 23 -18z m-3443 -830 c132 -58 270
-85 473 -93 l176 -7 98 -102 98 -103 -434 0 -434 0 -31 33 c-16 17 -51 58 -76
89 l-45 57 36 85 c20 47 42 84 47 81 6 -2 47 -20 92 -40z m2928 -40 c26 -63
30 -83 21 -96 -6 -8 -40 -50 -76 -92 l-64 -77 -425 0 -424 0 102 105 103 105
161 4 c192 5 326 32 465 94 48 22 91 39 95 38 5 -1 24 -37 42 -81z m-4449
-490 c88 -26 134 -102 134 -222 l0 -53 -95 0 -95 0 0 39 c0 55 -20 71 -85 71
-88 0 -85 10 -85 -307 0 -317 -1 -313 79 -313 26 0 56 7 69 16 20 14 22 24 22
100 l0 84 -40 0 -40 0 0 85 0 86 133 -3 132 -3 3 -170 c3 -207 -7 -263 -54
-309 -46 -45 -91 -56 -228 -56 -158 0 -209 21 -247 105 -17 36 -19 71 -19 375
0 305 2 339 19 375 25 55 61 86 118 101 66 18 218 17 279 -1z m1581 -8 c72
-38 106 -112 101 -220 l-3 -62 -90 0 -90 0 -3 50 c-2 27 -8 55 -14 62 -6 8
-33 13 -64 13 -86 0 -85 2 -82 -320 3 -306 2 -300 81 -300 63 0 77 13 77 70
l0 50 95 0 95 0 0 -62 c0 -121 -41 -190 -127 -216 -52 -16 -234 -15 -286 0
-55 17 -101 65 -116 121 -15 61 -15 617 0 688 14 66 68 123 131 138 64 15 257
7 295 -12z m1540 8 c92 -27 133 -97 133 -227 l0 -68 -90 0 -90 0 0 47 c0 63
-19 83 -81 83 -81 0 -79 8 -79 -310 0 -277 0 -279 22 -294 12 -9 39 -16 60
-16 51 0 78 28 78 80 l0 40 90 0 90 0 0 -62 c0 -35 -5 -81 -11 -103 -14 -50
-64 -100 -114 -114 -52 -14 -228 -14 -280 0 -50 14 -100 64 -114 114 -14 53
-15 656 0 708 15 55 63 104 118 121 62 19 205 20 268 1z m-4169 -387 l2 -388
121 0 120 0 -3 -87 -3 -88 -217 -3 -218 -2 0 480 0 481 98 -3 97 -3 3 -387z
m522 -88 l0 -480 -95 0 -95 0 0 480 0 480 95 0 95 0 0 -480z m1206 461 c50
-23 81 -64 94 -127 6 -30 9 -194 8 -429 l-3 -380 -92 -3 -93 -3 0 94 c0 52 -3
115 -6 141 l-7 46 -78 0 -79 0 0 -140 0 -140 -95 0 -95 0 0 393 c0 406 3 446
43 501 37 52 86 66 232 66 105 0 138 -4 171 -19z m1294 -166 l0 -185 80 0 80
0 0 185 0 185 95 0 95 0 0 -480 0 -481 -92 3 -93 3 -3 203 -2 202 -80 0 -80 0
0 -205 0 -205 -95 0 -95 0 0 480 0 480 95 0 95 0 0 -185z m650 -295 l0 -480
-95 0 -95 0 0 480 0 480 95 0 95 0 0 -480z m910 90 l0 -390 120 0 121 0 -3
-87 -3 -88 -210 0 -210 0 -3 478 -2 477 95 0 95 0 0 -390z m747 375 c48 -20
71 -41 94 -87 18 -35 19 -65 19 -448 l0 -411 -92 3 -93 3 -3 138 -3 137 -79 0
-80 0 0 -140 0 -140 -95 0 -95 0 0 403 c1 422 4 451 47 499 39 44 90 58 221
58 88 0 133 -4 159 -15z m378 3 c2 -7 25 -80 51 -161 25 -82 50 -145 54 -140
4 4 29 77 56 161 l47 152 99 0 c55 0 97 -3 95 -7 -3 -5 -50 -131 -106 -282
l-101 -273 0 -199 0 -199 -95 0 -95 0 0 195 0 195 -74 202 c-41 112 -88 239
-105 283 -17 44 -31 81 -31 82 0 2 45 3 100 3 72 0 102 -4 105 -12z m885 -10
c31 -16 51 -36 67 -67 23 -44 23 -46 23 -458 l0 -413 -90 0 -90 0 0 140 0 140
-80 0 -79 0 -3 -137 -3 -138 -92 -3 -93 -3 0 406 c0 342 2 411 15 442 38 91
87 112 255 113 111 0 131 -3 170 -22z m491 -198 c51 -121 96 -220 100 -220 3
0 6 30 6 68 0 37 1 136 1 220 l2 152 90 0 90 0 0 -480 0 -480 -94 0 -94 0 -4
63 c-4 52 -19 95 -95 265 -50 112 -94 206 -97 209 -3 4 -6 -116 -6 -265 l0
-272 -90 0 -90 0 0 480 0 480 94 0 93 0 94 -220z m832 206 c39 -16 82 -61 96
-99 7 -18 11 -173 11 -438 l0 -410 -92 3 -93 3 -3 138 -3 137 -79 0 -80 0 0
-140 0 -141 -92 3 -93 3 0 410 0 410 25 45 c41 73 86 90 242 90 87 0 139 -4
161 -14z m-7139 -1188 c112 -699 281 -1244 552 -1778 51 -102 122 -232 158
-290 l64 -105 -37 -5 -36 -5 -3 -299 -2 -300 -92 125 c-522 706 -861 1560
-1052 2652 l-7 37 225 0 225 0 5 -32z m1511 10 c-2 -13 -16 -122 -30 -243 -14
-121 -41 -346 -60 -500 -43 -350 -119 -982 -146 -1220 -11 -99 -22 -190 -25
-202 -4 -23 -6 -23 -182 -23 l-178 0 -61 98 c-264 423 -471 925 -607 1472 -48
193 -126 580 -126 625 0 13 96 15 710 15 l710 0 -5 -22z m2769 -10 c4 -30 53
-979 94 -1830 l17 -348 -1202 0 -1203 0 0 43 c0 38 44 803 85 1477 8 135 20
322 25 415 6 94 13 194 16 223 l5 52 1079 0 1079 0 5 -32z m1976 17 c0 -23
-27 -196 -49 -318 -70 -376 -171 -730 -306 -1073 -88 -221 -288 -615 -387
-761 l-29 -43 -172 0 -173 0 -27 243 c-93 832 -202 1784 -222 1930 l-5 37 685
0 c604 0 685 -2 685 -15z m540 9 c0 -3 -9 -65 -20 -137 -61 -397 -166 -798
-317 -1212 -183 -501 -452 -1012 -732 -1385 l-56 -74 -5 299 -5 300 -27 3
c-16 2 -28 5 -28 6 0 2 23 41 51 87 334 555 561 1214 680 1977 l22 142 219 0
c120 0 218 -3 218 -6z m-5511 -2415 c48 -17 61 -52 61 -167 0 -85 -3 -103 -21
-125 -25 -33 -79 -49 -144 -45 l-50 3 -3 173 -2 172 63 0 c35 0 78 -5 96 -11z
m311 -24 l0 -35 -50 0 -50 0 0 -34 c0 -34 1 -35 43 -38 39 -3 42 -5 42 -33 0
-28 -3 -30 -42 -33 -42 -3 -43 -4 -43 -37 0 -34 0 -34 53 -37 50 -3 52 -4 52
-33 l0 -30 -90 0 -90 0 -3 160 c-1 87 0 165 2 172 4 9 30 13 91 13 l85 0 0
-35z m410 0 l0 -35 -50 0 -50 0 0 -35 c0 -35 0 -35 45 -35 45 0 45 0 45 -35 0
-35 0 -35 -45 -35 l-44 0 -3 -67 -3 -68 -32 -3 -33 -3 0 175 0 176 85 0 85 0
0 -35z m140 -105 l5 -135 30 0 30 0 3 138 3 137 34 0 35 0 0 -144 c0 -136 -1
-147 -23 -171 -41 -49 -151 -43 -179 9 -13 23 -24 265 -14 291 4 11 16 15 38
13 l33 -3 5 -135z m400 105 c0 -32 -2 -35 -30 -35 l-29 0 -3 -137 -3 -138 -32
-3 -32 -3 -3 138 -3 138 -32 3 c-30 3 -33 6 -33 38 l0 34 100 0 100 0 0 -35z
m251 6 c24 -29 26 -103 4 -121 -14 -12 -13 -15 5 -35 22 -24 27 -83 9 -117
-16 -29 -70 -48 -139 -48 l-60 0 0 176 0 176 81 -4 c70 -3 83 -6 100 -27z
m280 0 c29 -29 29 -31 29 -145 0 -106 -2 -117 -23 -142 -18 -20 -35 -28 -74
-31 -45 -5 -53 -2 -84 25 -33 30 -34 33 -37 119 -6 156 20 202 116 203 35 0
49 -6 73 -29z m179 -111 l0 -140 51 0 50 0 -3 -32 -3 -33 -82 -3 -83 -3 0 176
0 175 35 0 35 0 0 -140z m370 25 c13 -64 25 -114 27 -111 3 2 13 44 24 93 10
48 21 98 24 111 4 18 12 22 41 22 33 0 36 -2 30 -22 -3 -13 -22 -92 -42 -176
l-36 -153 -42 3 -41 3 -42 165 c-23 91 -42 168 -42 173 -1 4 16 7 38 7 l38 0
23 -115z m278 -57 l-3 -173 -30 0 -30 0 -3 173 -2 172 35 0 35 0 -2 -172z
m261 146 c28 -23 31 -31 31 -83 0 -36 -6 -65 -16 -80 -15 -21 -15 -27 5 -80
28 -79 28 -83 -15 -79 -35 3 -38 6 -58 63 -13 38 -27 61 -38 63 -16 3 -18 -5
-18 -63 l0 -66 -32 3 -33 3 -3 160 c-1 87 0 165 2 172 4 9 27 13 75 13 60 0
74 -3 100 -26z m294 18 c3 -4 3 -19 0 -35 -4 -22 -11 -27 -34 -27 l-28 0 -3
-137 -3 -138 -32 -3 -33 -3 0 140 0 141 -35 0 c-33 0 -35 2 -35 35 l0 35 99 0
c55 0 102 -3 104 -8z m128 -113 c-3 -123 5 -159 37 -159 36 0 42 20 42 152 l0
128 35 0 35 0 0 -135 c0 -147 -8 -178 -51 -201 -57 -29 -134 -9 -157 41 -7 16
-12 78 -12 161 l0 135 37 -3 38 -3 -4 -116z m389 39 c12 -46 32 -123 45 -171
26 -94 23 -102 -26 -95 -16 2 -25 13 -31 36 -8 32 -11 33 -50 30 -38 -3 -43
-6 -50 -35 -8 -29 -12 -33 -44 -33 -29 0 -34 3 -30 18 3 9 21 82 41 162 20 80
38 151 40 158 3 7 21 12 44 12 l39 0 22 -82z m200 -58 l0 -140 51 0 50 0 -3
-32 -3 -33 -82 -3 -83 -3 0 176 0 175 35 0 35 0 0 -140z m-3765 -521 c190
-191 432 -395 667 -562 136 -96 243 -167 253 -167 3 0 5 102 5 228 l0 227 -88
61 c-48 34 -136 99 -195 145 -108 84 -108 84 -105 124 l3 40 1235 0 1235 0 3
-41 3 -41 -113 -88 c-62 -48 -150 -113 -195 -144 l-82 -56 -1 -232 c0 -128 2
-233 5 -233 12 0 264 171 380 257 183 136 355 283 512 441 l143 142 230 0
c144 0 230 -4 230 -10 0 -40 -507 -563 -701 -723 -283 -234 -567 -433 -838
-588 -252 -143 -741 -369 -800 -369 -39 0 -315 118 -542 231 -521 260 -1007
604 -1408 994 -136 133 -421 443 -421 459 0 3 109 6 243 6 l242 0 100 -101z"/>
<path d="M4076 6968 c-13 -18 -16 -53 -16 -171 l0 -148 82 3 82 3 1 151 c0
179 -2 184 -81 184 -43 0 -56 -4 -68 -22z"/>
<path d="M7696 6974 c-13 -13 -16 -43 -16 -170 l0 -154 80 0 80 0 0 160 c0
147 -1 160 -19 170 -30 16 -107 12 -125 -6z"/>
<path d="M8942 6978 c-8 -8 -12 -61 -12 -170 l0 -159 78 3 77 3 3 144 c3 178
-2 191 -81 191 -29 0 -58 -5 -65 -12z"/>
<path d="M10276 6968 c-13 -18 -16 -53 -16 -170 l0 -148 80 0 80 0 0 158 c0
110 -4 162 -12 170 -7 7 -36 12 -64 12 -43 0 -56 -4 -68 -22z"/>
<path d="M6390 5855 c-134 -25 -220 -68 -235 -115 -8 -25 -26 -25 -75 0 -22
11 -46 20 -54 20 -39 0 -52 -170 -22 -275 25 -83 57 -144 116 -214 45 -54 50
-65 50 -109 0 -53 -9 -66 -53 -77 -15 -4 -27 -13 -27 -19 0 -21 40 -56 64 -56
28 0 72 33 81 60 10 33 31 23 44 -21 9 -30 32 -60 78 -104 l66 -63 -8 -48 c-5
-27 -8 -76 -7 -109 2 -33 4 -118 5 -190 3 -159 -5 -179 -81 -215 -55 -25 -75
-57 -55 -89 23 -36 251 -60 398 -41 106 13 139 27 143 58 4 30 -17 54 -68 77
-66 30 -68 40 -59 403 1 31 -2 80 -5 107 -4 28 -3 55 1 60 4 6 34 30 66 54 59
45 87 84 87 121 0 11 5 20 10 20 6 0 10 -5 10 -12 0 -23 53 -68 80 -68 51 0
82 70 35 78 -34 7 -45 23 -45 69 0 39 6 52 55 110 60 71 84 111 108 188 34
107 33 243 -2 286 l-17 21 -61 -25 -61 -25 -24 36 c-28 44 -71 70 -157 94 -90
26 -282 32 -381 13z m349 -171 c26 -6 31 -11 31 -37 l0 -30 -47 7 c-114 16
-174 18 -258 7 -50 -7 -98 -14 -107 -17 -15 -4 -18 1 -18 30 l0 35 58 6 c31 3
64 8 72 10 20 5 229 -3 269 -11z m-439 -48 c0 -31 -3 -34 -44 -45 -59 -15 -56
-16 -56 23 0 31 3 35 38 44 59 16 62 15 62 -22z m566 23 c39 -10 44 -15 44
-40 0 -36 -6 -38 -63 -22 -43 13 -47 17 -43 41 2 15 5 28 5 30 2 4 11 2 57 -9z
m154 -49 c17 -41 7 -62 -27 -58 -22 2 -29 9 -31 31 -5 39 4 57 26 57 12 0 24
-11 32 -30z m-874 -17 c-3 -21 -5 -39 -6 -40 0 -2 -13 -3 -30 -3 -27 0 -30 3
-30 30 0 30 20 49 53 50 16 0 18 -6 13 -37z m484 -10 c-1 -56 -9 -63 -76 -63
l-64 0 0 40 0 40 70 0 c60 0 70 -2 70 -17z m118 1 c40 -8 26 -74 -17 -74 -58
0 -71 10 -71 51 0 42 -3 41 88 23z m-288 -29 c0 -39 -2 -40 -72 -50 l-48 -6 0
40 c0 43 5 46 88 50 30 1 32 -1 32 -34z m398 10 c44 -13 52 -20 52 -40 0 -49
-6 -53 -63 -40 -29 6 -52 17 -51 23 1 7 2 26 3 42 0 17 2 30 4 30 2 0 27 -7
55 -15z m-558 -4 c0 -5 3 -22 6 -38 5 -27 3 -31 -24 -36 -16 -3 -41 -9 -56
-13 -25 -6 -26 -4 -26 34 0 38 2 41 38 50 49 13 62 14 62 3z m-148 -91 c3 -30
5 -56 3 -58 -7 -7 -54 64 -61 91 -6 27 -5 28 22 25 27 -3 29 -7 36 -58z m878
55 c0 -17 -42 -84 -69 -109 l-31 -29 10 34 c6 19 10 48 10 65 0 17 3 34 7 37
8 8 73 9 73 2z m-426 -41 c11 -4 16 -19 16 -45 l0 -39 -60 0 -60 0 0 45 0 45
44 0 c24 0 51 -3 60 -6z m-144 -44 c0 -33 -4 -41 -24 -46 -13 -3 -37 -4 -52
-2 -25 3 -29 8 -32 40 -3 40 3 45 71 47 37 1 37 1 37 -39z m292 -5 c-2 -22 -5
-42 -7 -44 -2 -2 -25 0 -50 3 -43 7 -45 9 -45 40 0 43 6 47 60 44 l45 -3 -3
-40z m138 -7 c0 -42 -16 -55 -62 -49 -41 6 -43 8 -40 36 5 52 6 54 56 42 35
-8 46 -15 46 -29z m-572 -10 c3 -31 0 -38 -15 -38 -10 0 -28 -3 -40 -6 -17 -5
-25 1 -37 25 -21 40 -21 39 17 50 57 17 72 10 75 -31z m150 -91 l3 -37 -46 0
c-46 0 -51 4 -57 45 -2 16 4 21 32 26 58 11 65 7 68 -34z m142 7 l0 -35 -52 3
c-52 3 -53 4 -56 36 l-3 32 55 0 56 0 0 -36z m128 20 c2 -1 1 -16 -3 -33 -6
-27 -11 -31 -38 -31 -48 0 -60 12 -52 49 6 30 8 31 48 25 23 -4 44 -8 45 -10z
m-408 -11 c0 -5 3 -18 6 -30 8 -30 -14 -30 -50 -2 -21 17 -25 24 -14 30 16 11
58 12 58 2z m524 -1 c9 -15 -23 -43 -56 -49 -34 -5 -35 -4 -30 26 4 28 7 31
43 31 21 0 40 -3 43 -8z m-374 -106 c0 -22 -3 -24 -30 -16 -63 18 -69 40 -10
40 36 0 40 -3 40 -24z m126 8 c-3 -9 -6 -20 -6 -25 0 -6 -19 -9 -42 -7 -36 2
-44 7 -46 26 -3 20 0 22 48 22 43 0 51 -3 46 -16z m104 1 c0 -17 -46 -39 -66
-31 -7 3 -10 14 -7 25 4 16 13 21 39 21 24 0 34 -5 34 -15z m110 10 c0 -8 -62
-37 -67 -31 -11 11 20 36 43 36 13 0 24 -2 24 -5z m-470 -207 c0 -40 0 -41
-20 -23 -11 10 -20 29 -20 42 0 16 6 23 20 23 17 0 20 -7 20 -42z m70 -8 c0
-27 -4 -50 -8 -50 -18 0 -32 26 -32 62 0 31 4 38 20 38 17 0 20 -7 20 -50z
m66 0 c-1 -41 -4 -50 -19 -50 -23 0 -31 22 -23 65 5 24 12 35 25 35 14 0 17
-8 17 -50z m64 -6 c0 -47 -3 -55 -17 -52 -13 2 -19 15 -21 42 -4 47 3 66 23
66 12 0 15 -12 15 -56z m68 13 c3 -37 -10 -67 -29 -67 -5 0 -9 25 -9 56 0 47
3 55 18 52 12 -2 18 -14 20 -41z m57 -7 c0 -32 -4 -46 -15 -48 -12 -2 -15 9
-16 48 0 41 3 50 15 48 12 -2 16 -15 16 -48z m59 34 c10 -27 7 -61 -8 -73 -12
-10 -15 -4 -18 34 -2 26 -1 48 1 51 9 8 19 4 25 -12z m76 1 c0 -17 -29 -65
-39 -65 -3 0 -6 18 -6 40 -1 35 2 40 22 40 14 0 23 -6 23 -15z"/>
<path d="M6166 4158 c-11 -15 -16 -45 -16 -90 0 -59 3 -69 23 -82 113 -74 501
-88 684 -25 82 28 93 41 93 108 0 67 -17 105 -49 109 -13 2 -60 -7 -104 -20
-72 -20 -103 -23 -252 -22 -142 1 -183 4 -249 22 -99 27 -111 27 -130 0z"/>
<path d="M4563 3408 c2 -99 3 -103 25 -106 42 -6 52 14 52 102 0 90 -8 106
-51 106 l-27 0 1 -102z"/>
<path d="M6050 3475 c0 -34 2 -36 28 -33 23 3 27 8 27 33 0 25 -4 30 -27 33
-26 3 -28 1 -28 -33z"/>
<path d="M6050 3340 c0 -39 2 -41 26 -38 15 2 32 11 38 21 15 24 -3 51 -38 55
-24 3 -26 1 -26 -38z"/>
<path d="M6336 3504 c-12 -11 -16 -36 -16 -93 0 -87 13 -115 51 -109 23 3 24
6 27 97 3 93 -5 121 -34 121 -7 0 -20 -7 -28 -16z"/>
<path d="M7420 3470 c0 -28 5 -43 16 -47 27 -10 49 11 49 48 0 31 -3 34 -32
37 -32 3 -33 2 -33 -38z"/>
<path d="M8266 3435 c-4 -26 -10 -54 -13 -61 -4 -10 3 -14 22 -14 27 0 27 1
20 48 -11 72 -21 82 -29 27z"/>
<path d="M5800 2379 l0 -320 118 -56 c132 -62 411 -186 549 -244 l92 -38 58
25 c32 14 199 91 371 171 l312 146 0 318 0 319 -750 0 -750 0 0 -321z m627
155 c32 -20 50 -53 56 -96 l5 -38 -48 0 c-46 0 -49 2 -52 27 -2 20 -11 30 -32
38 -24 8 -31 6 -47 -14 -16 -20 -19 -40 -19 -142 0 -106 2 -121 20 -139 11
-11 26 -20 34 -20 22 0 46 29 46 56 0 22 4 24 45 24 l45 0 0 -37 c0 -21 -6
-49 -13 -63 -27 -54 -133 -77 -203 -44 -52 25 -67 63 -72 182 -8 193 14 258
96 280 45 13 109 6 139 -14z m-417 -173 l0 -188 38 -7 c20 -3 52 -6 70 -6 31
0 32 -2 32 -40 l0 -40 -119 0 -119 0 -1 226 c-1 124 1 230 4 235 4 5 26 9 51
9 l44 0 0 -189z m790 144 l0 -45 -70 0 -70 0 0 -55 0 -55 60 0 60 0 0 -39 0
-39 -60 -7 -59 -7 -3 -91 -3 -92 -45 0 -45 0 -3 238 -2 237 120 0 120 0 0 -45z
m155 23 c3 -13 18 -88 34 -168 16 -80 31 -138 35 -130 3 8 17 74 31 145 14 72
28 140 31 153 4 19 11 22 54 22 28 0 50 -5 50 -10 0 -6 -23 -102 -50 -213 -28
-111 -52 -212 -55 -224 -5 -21 -11 -23 -65 -23 l-59 0 -11 38 c-15 56 -100
413 -100 423 0 5 22 9 50 9 43 0 50 -3 55 -22z"/>
<path d="M10885 3685 c-30 -132 -84 -250 -164 -356 -66 -87 -248 -260 -349
-332 -141 -101 -338 -214 -592 -339 -678 -333 -816 -403 -945 -479 -531 -311
-848 -622 -984 -967 -57 -145 -68 -354 -26 -516 14 -53 31 -111 39 -128 l14
-33 1 37 c5 232 168 511 439 752 275 245 552 414 1282 781 479 241 616 315
778 422 312 205 495 419 564 658 42 148 27 380 -32 495 l-18 35 -7 -30z"/>
<path d="M11066 3185 c-16 -130 -92 -303 -186 -419 -98 -124 -249 -254 -425
-368 -157 -102 -309 -184 -765 -412 -524 -262 -693 -355 -925 -509 -246 -163
-466 -359 -589 -524 -186 -251 -215 -505 -89 -788 37 -83 63 -109 63 -62 0 13
8 48 19 78 95 278 380 572 886 914 250 169 419 270 950 567 464 260 629 371
803 542 164 160 243 279 303 456 30 87 33 106 33 225 1 130 -17 229 -58 328
l-13 32 -7 -60z"/>
</g>
</svg>
