<?xml version="1.0" standalone="no"?>
<!DOCTYPE svg PUBLIC "-//W3C//DTD SVG 20010904//EN"
 "http://www.w3.org/TR/2001/REC-SVG-20010904/DTD/svg10.dtd">
<svg version="1.0" xmlns="http://www.w3.org/2000/svg"
 width="1000.000000pt" height="1000.000000pt" viewBox="0 0 1000.000000 1000.000000"
 preserveAspectRatio="xMidYMid meet">

<g transform="translate(0.000000,1000.000000) scale(0.100000,-0.100000)"
fill="#ffffff" stroke="none">
<path d="M3827 8926 c-4 -10 -7 -27 -7 -38 0 -40 -66 -144 -134 -212 -174
-171 -439 -338 -891 -564 -150 -74 -531 -252 -542 -252 -2 0 -18 -10 -35 -21
-29 -21 -30 -24 -23 -78 8 -64 56 -178 79 -187 27 -10 614 262 877 408 380
210 627 434 696 631 23 66 24 232 1 291 -11 31 -16 36 -21 22z"/>
<path d="M3937 8660 c-3 -8 -13 -38 -22 -66 -78 -249 -418 -532 -975 -812
-195 -98 -247 -122 -459 -214 -154 -66 -154 -66 -139 -81 41 -39 112 -90 176
-127 l74 -41 81 32 c45 18 189 86 320 151 560 279 876 532 966 774 31 83 41
162 30 244 -11 78 -43 165 -52 140z"/>
<path d="M4805 8325 c-107 -15 -240 -46 -350 -82 -218 -71 -476 -239 -646
-421 -64 -69 -189 -225 -189 -237 0 -3 -17 -33 -38 -67 -44 -74 -102 -200
-127 -278 -9 -30 -23 -61 -30 -68 -7 -8 -48 -24 -91 -37 -44 -13 -137 -42
-209 -64 -71 -23 -140 -41 -153 -41 -28 0 -361 160 -471 227 -76 46 -183 134
-253 207 -43 45 -101 151 -117 214 -7 23 -16 42 -21 42 -22 0 -42 -112 -38
-215 3 -94 6 -108 42 -179 61 -125 216 -285 370 -382 25 -16 46 -36 46 -45 0
-18 -63 -41 -88 -32 -10 4 -58 38 -109 75 -161 121 -267 255 -314 398 -12 36
-25 69 -29 74 -5 4 -20 -28 -34 -73 -48 -151 -31 -294 49 -421 41 -65 171
-191 257 -248 42 -29 79 -56 82 -61 3 -5 2 -85 -4 -177 -5 -93 -12 -269 -16
-391 l-7 -223 -104 0 -103 0 0 -424 0 -423 61 -7 c34 -3 99 -6 144 -6 l81 0
13 -82 c7 -46 17 -99 21 -118 5 -19 14 -62 20 -95 27 -141 73 -325 131 -520
28 -91 97 -294 109 -320 5 -11 23 -56 41 -100 129 -333 355 -721 568 -975 178
-213 238 -277 371 -394 215 -190 315 -265 560 -420 169 -107 567 -285 791
-354 88 -27 89 -27 419 100 101 39 330 148 428 205 108 62 292 180 362 231
309 228 638 573 845 887 42 63 82 115 89 115 7 0 91 -38 187 -83 96 -46 200
-94 231 -106 l57 -23 47 26 c73 41 205 138 201 149 -1 5 -84 44 -182 87 -176
75 -381 173 -399 190 -11 11 12 70 28 70 6 0 36 -12 66 -26 208 -99 472 -218
510 -230 44 -14 45 -14 68 13 26 33 62 141 62 188 0 42 -2 43 -256 159 -310
140 -325 147 -330 160 -3 7 13 57 34 112 112 284 206 622 262 944 17 102 35
192 40 200 6 11 22 14 66 11 32 -1 95 0 141 4 l83 7 0 331 c0 212 -4 346 -11
372 -15 54 -82 119 -139 136 -25 7 -50 16 -56 21 -8 6 -13 95 -17 271 -9 384
-34 680 -60 720 -15 23 -36 31 -242 95 -71 22 -197 61 -280 87 -82 26 -177 55
-210 65 -33 10 -127 39 -210 65 -82 25 -181 56 -220 67 -38 12 -75 26 -81 32
-6 6 -23 43 -38 81 -125 321 -368 602 -687 793 -117 70 -201 107 -349 151
-253 76 -456 96 -675 66z m450 -260 c80 -14 173 -40 252 -69 88 -31 253 -121
253 -137 0 -3 -30 1 -67 10 -94 20 -344 20 -443 -1 -53 -11 -91 -13 -130 -8
-30 4 -98 13 -150 20 -83 11 -103 17 -154 51 -73 48 -157 76 -186 63 -20 -9
-17 -13 37 -49 32 -22 58 -45 58 -51 0 -6 -27 -33 -60 -61 -71 -59 -155 -140
-211 -204 l-41 -47 -64 5 c-121 9 -269 -44 -412 -149 -66 -49 -68 -50 -92 -34
l-25 17 24 47 c66 130 213 287 356 380 123 80 293 151 362 152 20 0 40 5 43
10 18 30 145 62 290 74 84 7 275 -3 360 -19z m535 -253 c131 -63 254 -174 287
-260 12 -32 20 -41 33 -37 23 7 51 -26 103 -125 80 -153 133 -328 157 -520 13
-103 10 -390 -4 -353 -8 22 -108 73 -143 73 -16 0 -22 11 -33 58 -7 31 -29
118 -48 192 -39 148 -42 176 -23 265 14 62 7 255 -9 284 -4 8 -9 -58 -12 -147
-2 -89 -7 -165 -12 -169 -4 -4 -47 -11 -94 -15 -48 -3 -119 -9 -159 -13 l-72
-8 -13 29 c-26 59 -158 213 -232 270 -64 49 -217 146 -248 156 -10 4 -40 227
-36 271 3 28 7 32 53 43 140 33 440 37 505 6z m-1243 -393 l133 -147 -29 -78
c-44 -118 -91 -351 -91 -450 0 -17 -6 -36 -12 -41 -7 -6 -71 -36 -142 -68
-120 -53 -131 -56 -156 -44 -14 8 -106 56 -203 108 l-177 94 0 55 c0 60 19
194 52 372 24 129 30 138 123 205 75 53 143 88 237 120 116 40 113 41 265
-126z m744 -16 c24 -21 69 -58 99 -83 186 -151 316 -294 304 -333 -4 -11 -14
-57 -24 -101 -41 -189 -73 -322 -80 -329 -21 -23 -405 -67 -585 -67 -107 0
-114 1 -151 28 -157 114 -208 273 -186 575 5 80 14 153 20 162 6 11 80 41 203
81 107 35 219 72 249 83 82 28 101 26 151 -16z m-1908 -410 c3 -5 0 -37 -5
-73 -5 -36 -12 -107 -16 -159 -7 -90 -8 -94 -32 -98 -38 -5 -374 -113 -383
-123 -17 -16 -27 -141 -33 -418 -6 -261 -8 -284 -25 -293 -11 -5 -98 -8 -211
-7 l-193 3 3 210 c3 208 34 674 46 693 3 5 66 29 138 52 73 23 158 50 188 60
30 10 116 37 190 60 74 23 176 55 225 71 101 32 102 32 108 22z m3337 -23 c80
-23 190 -57 335 -103 61 -20 166 -52 235 -72 148 -43 151 -44 168 -78 20 -41
43 -371 45 -647 l2 -255 -25 4 c-14 2 -86 4 -161 4 l-137 1 -7 201 c-4 110
-12 256 -19 325 l-11 125 -100 33 c-55 19 -167 53 -250 76 l-150 43 -6 99 c-4
55 -10 139 -14 188 -8 85 -7 89 11 82 10 -4 48 -16 84 -26z m-2708 -382 l136
-133 7 -75 c4 -41 19 -124 35 -185 16 -60 26 -113 24 -117 -5 -9 -114 34 -171
68 -67 39 -190 160 -239 235 -63 97 -114 193 -114 215 0 11 30 52 66 92 l66
72 26 -20 c15 -10 88 -79 164 -152z m398 28 c0 -2 -7 -7 -16 -10 -8 -3 -12 -2
-9 4 6 10 25 14 25 6z m-45 -26 c-3 -5 -12 -10 -18 -10 -7 0 -6 4 3 10 19 12
23 12 15 0z m1966 -192 c15 -27 -37 -212 -70 -252 -36 -43 -184 -83 -202 -55
-5 8 -9 59 -9 114 l0 100 86 104 86 103 50 -49 c27 -26 54 -56 59 -65z m-654
-15 c58 -54 124 -120 145 -147 l39 -49 -48 -50 c-90 -92 -231 -169 -368 -197
-112 -24 -342 -13 -454 22 l-33 10 7 116 c7 118 30 210 56 223 8 4 32 12 54
18 22 6 94 27 160 47 66 20 140 42 165 49 25 7 70 22 100 33 30 11 58 21 63
21 4 1 55 -43 114 -96z m-2596 -673 c57 -16 73 -41 77 -121 l4 -69 -71 0 -71
0 0 45 0 45 -39 0 -40 0 0 -208 c0 -114 4 -213 8 -221 5 -7 21 -11 37 -9 29 3
29 4 32 75 3 68 2 72 -20 75 -21 3 -23 8 -23 58 l0 54 90 -3 c50 -1 92 -5 94
-7 7 -7 4 -257 -3 -292 -11 -47 -52 -65 -161 -70 -116 -5 -163 10 -187 58 -16
30 -18 66 -18 260 0 124 5 241 10 261 10 36 37 62 75 72 36 9 170 7 206 -3z
m458 -6 c25 -10 43 -25 49 -42 16 -42 24 -579 9 -584 -7 -2 -41 -2 -77 1 l-65
6 -2 70 c-1 39 -2 82 -2 98 -1 24 -4 27 -38 27 l-38 0 1 -67 c0 -36 -2 -82 -6
-102 l-5 -36 -58 1 c-94 3 -87 -14 -87 226 1 335 12 386 84 407 53 16 192 13
235 -5z m651 -2 c45 -22 60 -53 60 -123 0 -56 -1 -57 -31 -61 -16 -3 -47 -2
-67 1 -35 6 -37 8 -40 49 -3 42 -3 42 -43 42 l-39 0 0 -220 0 -220 40 0 40 0
0 54 c0 44 4 56 18 60 14 4 76 2 115 -3 4 -1 7 -34 7 -75 0 -122 -42 -151
-205 -144 -108 5 -139 19 -154 75 -15 52 -14 471 0 512 19 54 59 71 169 71 71
0 104 -5 130 -18z m1150 0 c40 -20 59 -61 59 -134 l1 -48 -69 0 c-74 0 -80 6
-81 68 0 19 -5 22 -35 22 -26 0 -35 -4 -36 -17 -5 -132 -7 -392 -3 -405 4 -13
16 -18 40 -18 33 0 34 1 34 41 0 67 8 74 84 71 l66 -4 0 -62 c0 -120 -42 -154
-190 -155 -89 0 -136 15 -163 51 -18 24 -20 44 -21 270 -1 272 2 290 64 320
26 13 59 18 125 18 66 0 99 -5 125 -18z m797 -2 c45 -29 48 -49 48 -338 0
-170 -4 -277 -10 -282 -8 -6 -104 -7 -137 -1 -5 0 -8 46 -8 101 l0 100 -35 0
-35 0 0 -99 c0 -86 -2 -100 -17 -105 -25 -8 -118 -5 -133 4 -9 5 -11 78 -8
281 3 307 8 329 71 348 47 15 237 8 264 -9z m852 7 c19 -7 44 -25 55 -40 20
-27 21 -39 20 -310 l-2 -281 -65 -3 c-74 -2 -82 3 -82 57 -1 19 -2 61 -3 93
l-2 57 -35 0 -35 0 0 -99 c0 -112 1 -111 -85 -111 -34 0 -57 5 -65 15 -17 21
-10 540 9 577 8 15 30 34 50 42 44 18 191 20 240 3z m454 2 c26 -7 44 -21 58
-42 18 -30 19 -49 17 -312 l-3 -280 -70 0 -70 0 -3 263 -2 262 -35 0 -35 0 0
-259 c0 -294 9 -270 -92 -263 l-58 4 0 271 c0 309 4 332 70 354 44 15 173 16
223 2z m459 0 c68 -18 73 -37 76 -329 2 -146 -1 -266 -6 -280 -9 -23 -15 -25
-73 -25 l-64 0 -7 45 c-3 25 -7 71 -7 103 l-1 57 -35 0 c-39 0 -36 9 -39 -127
-1 -34 -4 -65 -8 -68 -6 -6 -84 -10 -130 -6 -15 1 -16 26 -13 281 3 310 5 318
68 345 38 17 186 19 239 4z m-5541 -201 c-1 -108 0 -221 4 -252 l7 -55 67 -3
66 -3 3 -57 c3 -54 1 -58 -22 -64 -27 -6 -253 3 -267 11 -9 6 -3 601 7 616 3
6 35 9 72 7 l66 -3 -3 -197z m347 -112 c1 -170 -2 -314 -6 -318 -5 -5 -39 -6
-75 -2 l-67 7 0 307 c0 169 3 310 7 314 4 4 37 6 73 4 l65 -3 3 -309z m1760
182 l3 -128 45 0 46 0 -4 125 c-3 144 -7 139 93 133 l54 -3 0 -315 0 -314 -68
-1 c-38 0 -71 4 -74 8 -3 5 -5 58 -4 118 l2 109 -45 0 -45 0 -3 -117 -3 -118
-68 0 c-38 0 -71 3 -73 7 -7 11 -5 609 2 620 3 5 36 8 72 6 l67 -3 3 -127z
m466 124 c7 -12 9 -609 2 -620 -3 -5 -36 -8 -73 -8 l-68 1 -3 305 c-1 168 0
310 3 317 5 15 130 19 139 5z m674 -249 l2 -252 73 -3 72 -3 0 -60 0 -60 -145
3 c-79 2 -146 5 -148 6 -2 2 -3 140 -2 307 0 227 4 305 13 311 6 5 39 7 72 6
l60 -3 3 -252z m759 245 c5 -7 22 -57 38 -111 26 -92 29 -97 41 -75 7 12 21
57 30 98 10 41 22 81 27 88 11 14 105 16 126 3 11 -7 3 -42 -49 -193 -61 -177
-64 -187 -69 -308 l-6 -125 -70 0 -70 0 -6 130 c-6 126 -7 135 -66 307 -44
127 -58 179 -50 187 15 15 112 14 124 -1z m-3432 -747 c53 -5 60 -9 66 -31 4
-14 24 -95 44 -180 43 -178 129 -444 187 -575 22 -49 54 -121 71 -160 17 -38
46 -93 64 -122 18 -29 44 -76 59 -105 38 -75 102 -170 130 -191 13 -10 22 -23
19 -27 -5 -9 76 -123 96 -135 30 -19 -5 -25 -145 -25 l-153 0 -7 -46 c-3 -26
-6 -108 -6 -183 l0 -136 -83 114 c-273 371 -491 851 -622 1368 -32 123 -85
387 -85 419 l0 24 153 -1 c83 -1 179 -4 212 -8z m4487 4 c7 -7 -16 -154 -43
-275 -41 -183 -114 -448 -145 -524 -13 -33 -24 -64 -24 -69 0 -43 -285 -659
-314 -679 -15 -11 -436 -10 -436 0 0 5 26 44 58 88 88 122 113 164 106 176 -4
6 -3 8 4 4 13 -8 151 253 217 410 96 226 179 496 229 737 14 64 27 121 31 127
6 10 307 15 317 5z m-4582 -1050 c0 -5 -5 -3 -10 5 -5 8 -10 20 -10 25 0 6 5
3 10 -5 5 -8 10 -19 10 -25z m40 -100 c0 -5 -5 -3 -10 5 -5 8 -10 20 -10 25 0
6 5 3 10 -5 5 -8 10 -19 10 -25z m67 -162 c-3 -2 -12 15 -22 39 -28 69 -27 78
0 19 14 -29 24 -55 22 -58z m43 -77 c0 -6 -7 -1 -15 10 -8 10 -15 23 -15 28 0
6 7 1 15 -10 8 -10 15 -23 15 -28z m853 -315 c14 -14 14 -188 -1 -203 -5 -5
-35 -12 -65 -13 -53 -4 -56 -3 -62 23 -6 30 1 187 9 201 8 12 105 6 119 -8z
m148 9 c24 0 29 -4 29 -25 0 -18 -5 -25 -20 -25 -13 0 -20 -7 -20 -19 0 -12 7
-18 18 -17 11 1 18 -7 20 -25 2 -21 -2 -28 -22 -33 -34 -8 -33 -26 0 -26 22 0
25 -4 22 -27 -3 -24 -7 -27 -47 -27 -41 -1 -45 1 -53 29 -9 31 -3 178 8 196 3
6 13 8 21 5 8 -3 28 -6 44 -6z m827 -71 c5 -88 3 -132 -6 -141 -5 -5 -36 -8
-68 -6 l-59 3 -3 45 c-2 25 -1 73 3 107 l6 62 42 3 c64 5 81 -10 85 -73z
m-538 46 c0 -18 -5 -25 -20 -25 -13 0 -20 -7 -20 -19 0 -10 9 -21 20 -24 12
-3 20 -14 20 -26 0 -14 -6 -21 -20 -21 -17 0 -20 -7 -20 -40 0 -38 -2 -40 -30
-40 l-30 0 0 110 0 110 50 0 c47 0 50 -2 50 -25z m112 -27 c0 -29 2 -57 3 -63
2 -5 4 -23 6 -40 1 -16 5 11 8 60 6 88 7 90 31 90 25 0 25 -1 28 -100 3 -113
-3 -125 -68 -125 -55 0 -60 11 -60 127 l0 103 25 0 c23 0 25 -4 27 -52z m248
27 c0 -15 -6 -25 -14 -25 -21 0 -28 -30 -25 -103 3 -61 2 -62 -24 -65 l-27 -3
0 85 c0 68 -3 86 -14 86 -16 0 -25 19 -18 38 3 8 25 12 63 12 56 0 59 -1 59
-25z m374 9 c3 -9 6 -53 6 -99 0 -98 -11 -115 -70 -115 -58 0 -70 18 -70 108
0 119 2 122 70 122 44 0 59 -4 64 -16z m120 -6 c3 -13 6 -50 6 -83 0 -53 3
-61 23 -70 39 -18 27 -39 -26 -46 -27 -3 -50 -3 -52 0 -5 9 -7 66 -6 149 1 69
2 72 25 72 16 0 26 -7 30 -22z m252 -5 c3 -16 10 -39 14 -53 8 -23 8 -22 9 11
1 43 21 72 46 68 22 -5 22 3 0 -120 l-19 -100 -35 3 -35 3 -18 90 c-23 121
-23 125 7 125 19 0 26 -7 31 -27z m194 -84 l0 -110 -27 3 c-22 2 -27 8 -26 31
1 15 1 63 2 107 1 78 2 80 26 80 l25 0 0 -111z m188 89 c4 -13 7 -61 7 -108
l-1 -85 -32 -3 c-31 -3 -32 -2 -34 40 l-1 43 -4 -42 c-4 -40 -6 -43 -34 -43
l-29 0 0 103 c0 57 3 107 7 110 3 4 30 7 60 7 47 0 55 -3 61 -22z m179 6 c3
-8 -4 -25 -16 -38 -17 -18 -21 -35 -21 -94 l0 -72 -29 0 -29 0 -1 82 c-1 68
-5 84 -21 95 -11 8 -17 20 -14 28 9 22 122 21 131 -1z m103 -73 c0 -50 5 -93
10 -96 6 -4 10 28 10 89 0 96 0 96 25 96 l25 0 0 -109 c0 -104 -1 -109 -22
-115 -46 -12 -87 -7 -98 13 -11 22 -14 194 -3 204 3 4 17 7 30 7 22 0 23 -2
23 -89z m264 73 c3 -9 6 -58 6 -110 l0 -94 -30 0 c-27 0 -30 3 -30 31 0 17 -4
28 -10 24 -5 -3 -10 -17 -10 -30 0 -25 -21 -38 -45 -29 -12 5 -15 25 -15 93 0
129 1 131 70 131 44 0 59 -4 64 -16z m126 -46 c0 -80 7 -105 31 -111 11 -3 19
-14 19 -26 0 -19 -6 -21 -55 -21 l-55 0 0 110 0 110 30 0 30 0 0 -62z m-2611
-348 c11 -6 11 -20 3 -66 -5 -33 -9 -60 -8 -62 13 -13 144 -22 282 -20 l169 3
3 73 c3 69 4 72 27 72 13 0 40 -13 58 -30 36 -31 255 -150 322 -174 22 -7 66
-26 97 -40 32 -14 74 -32 94 -39 21 -6 39 -17 41 -22 4 -15 -89 -47 -101 -35
-6 6 -45 10 -88 10 l-78 0 2 -182 3 -183 248 0 c275 0 251 -6 259 65 5 42 31
29 43 -20 l11 -45 64 -3 c36 -1 70 1 76 5 12 9 74 287 74 335 l0 33 -201 0
c-219 0 -228 4 -100 46 94 31 393 178 475 233 97 65 104 63 108 -26 l3 -73
165 -3 c91 -1 190 1 220 5 l55 8 3 73 3 73 144 -3 c79 -2 147 -6 151 -11 10
-9 -23 -44 -166 -175 -295 -271 -662 -492 -1075 -647 -195 -73 -205 -76 -262
-60 -89 24 -327 117 -438 170 -341 166 -620 354 -835 564 -62 61 -123 117
-134 125 -17 12 -18 17 -7 24 16 12 272 13 290 2z m1795 -25 c-10 -8 -23 -15
-28 -15 -6 0 -1 7 10 15 10 8 23 15 28 15 6 0 1 -7 -10 -15z m-619 -351 c10
-10 15 -29 13 -48 -3 -27 -7 -31 -33 -31 -24 0 -31 5 -33 23 -6 38 -24 19 -27
-28 -7 -94 17 -204 27 -122 2 22 8 28 36 30 31 3 32 2 32 -33 0 -62 -13 -75
-76 -75 -93 0 -94 2 -94 138 0 146 6 157 83 160 40 2 60 -2 72 -14z m153 6
c20 0 23 -4 20 -32 -2 -27 -7 -33 -28 -33 -20 0 -25 -5 -25 -25 0 -14 6 -26
13 -26 6 -1 19 -2 28 -3 11 -1 14 -9 12 -28 -2 -22 -9 -29 -30 -31 -25 -3 -27
-7 -30 -55 l-3 -52 -35 0 -35 0 -3 142 -3 142 28 4 c16 2 37 3 48 1 11 -2 30
-4 43 -4z m104 -14 c4 -6 10 -39 14 -73 3 -35 10 -61 14 -58 4 3 11 34 15 69
3 36 13 70 20 76 18 15 55 3 55 -17 0 -25 -41 -237 -50 -253 -9 -19 -64 -25
-77 -8 -11 15 -53 211 -53 250 0 36 41 46 62 14z m-498 -2 c3 -9 6 -58 6 -110
l0 -94 29 0 c23 0 30 -5 34 -27 3 -16 3 -31 0 -35 -2 -5 -33 -8 -68 -8 -52 0
-64 3 -68 18 -7 24 -7 233 -1 255 7 22 59 23 68 1z"/>
<path d="M3376 5579 c-3 -17 -6 -65 -6 -106 l0 -74 43 3 42 3 3 70 c2 39 0 85
-3 103 -5 28 -10 32 -39 32 -29 0 -34 -4 -40 -31z"/>
<path d="M5967 5603 c-4 -3 -7 -51 -7 -105 l0 -98 35 0 35 0 0 105 0 105 -28
0 c-16 0 -32 -3 -35 -7z"/>
<path d="M6840 5505 l0 -105 34 0 c33 0 34 1 41 51 4 28 4 75 0 105 -6 54 -7
54 -41 54 l-34 0 0 -105z"/>
<path d="M7747 5533 c-3 -43 -3 -90 0 -105 5 -24 10 -28 40 -28 l34 0 -3 103
-3 102 -31 3 -31 3 -6 -78z"/>
<path d="M3783 3145 c0 -38 2 -53 4 -32 2 20 2 52 0 70 -2 17 -4 1 -4 -38z"/>
<path d="M4740 3195 c0 -8 5 -15 10 -15 6 0 10 7 10 15 0 8 -4 15 -10 15 -5 0
-10 -7 -10 -15z"/>
<path d="M4752 3100 c0 -14 2 -19 5 -12 2 6 2 18 0 25 -3 6 -5 1 -5 -13z"/>
<path d="M4940 3146 c0 -44 3 -77 6 -74 11 11 15 118 5 136 -8 12 -10 -4 -11
-62z"/>
<path d="M5701 3190 c0 -33 1 -34 11 -12 8 17 8 26 0 34 -9 9 -12 4 -11 -22z"/>
<path d="M6240 3186 c0 -14 5 -28 10 -31 6 -4 10 7 10 24 0 17 -4 31 -10 31
-5 0 -10 -11 -10 -24z"/>
<path d="M8098 3261 c-46 -156 -181 -303 -390 -425 -107 -63 -386 -199 -658
-321 -293 -132 -544 -269 -677 -369 -174 -131 -329 -330 -390 -500 -56 -158
-56 -414 -1 -591 10 -35 12 -37 16 -15 2 14 14 71 27 127 69 290 260 545 545
728 221 142 443 262 707 383 488 224 769 448 865 691 30 75 31 235 2 305 -10
25 -21 46 -24 46 -3 0 -13 -27 -22 -59z"/>
<path d="M8230 2990 c0 -41 -48 -149 -100 -224 -68 -98 -174 -196 -315 -290
-133 -90 -280 -169 -655 -354 -531 -262 -770 -429 -922 -647 -124 -179 -168
-357 -141 -583 13 -114 35 -209 58 -250 l14 -27 1 26 c1 102 92 337 183 474
90 137 284 325 477 462 103 73 385 243 570 343 375 203 656 391 760 509 142
159 180 361 103 544 -17 40 -33 49 -33 17z"/>
</g>
</svg>
