<?xml version="1.0" standalone="no"?>
<!DOCTYPE svg PUBLIC "-//W3C//DTD SVG 20010904//EN"
 "http://www.w3.org/TR/2001/REC-SVG-20010904/DTD/svg10.dtd">
<svg version="1.0" xmlns="http://www.w3.org/2000/svg"
 width="3840.000000pt" height="1177.000000pt" viewBox="0 0 3840.000000 1177.000000"
 preserveAspectRatio="xMidYMid meet">

<g transform="translate(0.000000,1177.000000) scale(0.100000,-0.100000)"
fill="#ffffff" stroke="none">
<path d="M2542 5503 l3 -3668 11123 -3 11122 -2 0 3670 0 3670 -11125 0
-11125 0 2 -3667z m2918 610 l0 -1438 122 -122 123 -123 545 0 545 0 102 102
103 103 0 1457 0 1458 645 0 645 0 0 -1682 -1 -1683 -337 -372 -337 -372
-1316 0 -1316 -1 -402 370 -401 370 0 1685 0 1685 640 0 640 0 0 -1437z
m17292 1113 l357 -311 0 -857 1 -857 -354 -326 -354 -325 -1071 0 -1071 0 -2
-552 -3 -553 -637 -3 -638 -2 0 2055 0 2056 1707 -7 1707 -7 358 -311z m-7002
-186 l0 -500 -715 0 -715 0 0 -1545 0 -1545 -640 0 -640 0 0 1545 0 1545 -720
0 -720 0 0 500 0 500 2075 0 2075 0 0 -500z"/>
<path d="M20260 6040 l0 -500 663 0 662 0 123 123 122 122 0 255 0 255 -123
123 -122 122 -663 0 -662 0 0 -500z"/>
<path d="M28964 7937 c-2 -7 -3 -60 -2 -118 l3 -104 123 -3 122 -3 0 121 0
120 -120 0 c-91 0 -122 -3 -126 -13z"/>
<path d="M33070 7830 l0 -121 123 3 122 3 0 115 0 115 -122 3 -123 3 0 -121z"/>
<path d="M26590 7478 c0 -351 4 -468 14 -519 47 -220 222 -339 501 -339 274 0
449 116 500 331 12 52 15 149 15 522 l0 457 -135 0 -135 0 0 -457 0 -458 -24
-51 c-29 -62 -65 -89 -147 -110 -103 -26 -209 -1 -259 63 -55 70 -54 63 -58
556 l-3 457 -135 0 -134 0 0 -452z"/>
<path d="M34180 7703 l0 -227 -46 48 c-118 124 -316 136 -459 28 -149 -113
-211 -364 -149 -606 33 -128 112 -234 212 -283 44 -21 74 -28 143 -31 129 -6
215 28 275 109 l24 33 0 -62 0 -62 120 0 120 0 0 640 0 640 -120 0 -120 0 0
-227z m-127 -307 c81 -33 129 -138 131 -281 1 -190 -100 -303 -251 -280 -68
10 -132 77 -156 161 -32 114 -17 256 35 335 45 68 161 99 241 65z"/>
<path d="M36260 7704 l0 -225 -50 51 c-27 28 -66 58 -86 66 -186 78 -395 -4
-483 -189 -38 -82 -53 -158 -53 -276 1 -224 86 -397 229 -468 46 -22 74 -28
147 -31 115 -5 188 19 252 84 l43 42 3 -51 3 -52 123 -3 122 -3 0 641 0 640
-125 0 -125 0 0 -226z m-113 -313 c74 -34 122 -141 123 -273 0 -161 -69 -266
-188 -284 -159 -24 -270 149 -233 362 18 104 66 177 131 203 41 16 122 12 167
-8z"/>
<path d="M28322 7619 c-64 -12 -141 -59 -176 -106 -17 -23 -34 -42 -38 -43 -5
0 -8 29 -8 65 l0 65 -115 0 -115 0 0 -475 0 -475 120 0 120 0 0 274 c0 150 5
297 10 327 20 106 89 163 195 164 67 0 103 -17 132 -62 16 -24 19 -64 23 -363
l5 -335 123 -3 122 -3 0 369 c0 411 -2 426 -67 501 -43 50 -109 85 -188 100
-66 12 -82 12 -143 0z"/>
<path d="M30695 7619 c-82 -12 -195 -69 -240 -122 -83 -96 -119 -206 -118
-362 0 -172 35 -282 114 -370 84 -91 199 -135 353 -135 130 1 234 40 311 117
41 41 105 146 105 173 0 6 -45 10 -122 10 l-123 0 -29 -36 c-35 -44 -80 -64
-143 -64 -123 0 -194 63 -217 193 l-7 37 326 0 325 0 0 78 c-1 269 -137 448
-365 482 -79 11 -87 11 -170 -1z m162 -210 c46 -17 92 -69 108 -123 8 -27 15
-53 15 -58 0 -4 -88 -8 -195 -8 -107 0 -195 4 -195 8 0 5 7 31 15 58 14 48 54
97 100 122 26 15 115 15 152 1z"/>
<path d="M32344 7620 c-86 -13 -150 -39 -199 -82 -105 -92 -136 -251 -69 -354
49 -76 131 -116 314 -155 219 -47 275 -85 224 -157 -27 -38 -67 -52 -154 -52
-115 0 -177 33 -194 103 l-6 27 -127 0 -126 0 7 -46 c23 -172 187 -273 441
-274 202 0 339 66 394 190 48 109 34 225 -36 291 -64 62 -140 92 -334 133
-125 26 -172 45 -189 75 -16 31 -12 51 18 81 36 35 116 48 191 30 53 -13 83
-38 98 -85 l10 -30 121 -3 c75 -2 122 1 122 7 0 37 -26 116 -50 155 -38 60
-99 102 -179 126 -77 22 -204 31 -277 20z"/>
<path d="M34935 7620 c-178 -20 -284 -111 -313 -268 l-9 -52 119 0 c104 0 119
2 124 18 27 89 95 125 210 107 60 -9 104 -49 104 -95 0 -71 -16 -79 -225 -110
-210 -32 -287 -73 -336 -185 -31 -70 -32 -181 -1 -250 29 -63 55 -90 117 -123
45 -24 61 -27 155 -27 94 0 111 3 160 27 31 15 74 43 97 63 l42 35 11 -55 11
-55 135 0 c119 0 134 2 134 17 0 9 -9 27 -21 39 -31 33 -38 120 -39 435 l0
275 -26 52 c-15 31 -42 64 -67 82 -80 59 -233 87 -382 70z m230 -677 c-8 -35
-66 -94 -110 -114 -56 -26 -145 -25 -178 2 -60 46 -54 151 10 195 17 11 70 29
117 38 47 9 103 23 123 30 l38 13 3 -71 c2 -39 0 -81 -3 -93z"/>
<path d="M31779 7592 c-41 -21 -63 -42 -96 -92 l-43 -64 0 82 0 82 -120 0
-120 0 0 -475 0 -475 125 0 125 0 0 273 c0 167 4 287 11 312 14 51 73 110 124
124 22 6 68 11 103 11 l62 0 0 125 0 125 -59 0 c-45 0 -71 -7 -112 -28z"/>
<path d="M28960 7125 l0 -475 125 0 125 0 0 475 0 475 -125 0 -125 0 0 -475z"/>
<path d="M29374 7563 c112 -309 326 -907 326 -910 0 -2 59 -2 132 -1 l132 3
168 465 c92 256 168 468 168 473 0 4 -58 7 -129 7 -115 0 -130 -2 -135 -17 -3
-10 -48 -166 -100 -347 -53 -181 -97 -330 -99 -332 -2 -2 -15 38 -29 89 -15
50 -59 208 -98 350 l-73 257 -138 0 -138 0 13 -37z"/>
<path d="M33070 7125 l0 -475 125 0 125 0 0 475 0 475 -125 0 -125 0 0 -475z"/>
<path d="M32632 6075 l-81 -125 92 0 92 0 125 125 125 125 -136 0 -136 0 -81
-125z"/>
<path d="M34410 6045 l0 -115 125 0 125 0 0 115 0 115 -125 0 -125 0 0 -115z"/>
<path d="M26490 6035 l0 -115 190 0 190 0 0 -525 0 -525 135 0 135 0 0 525 0
525 195 0 195 0 0 115 0 115 -520 0 -520 0 0 -115z"/>
<path d="M31737 6143 c-4 -3 -7 -291 -7 -640 l0 -633 125 0 125 0 0 640 0 640
-118 0 c-65 0 -122 -3 -125 -7z"/>
<path d="M27803 5825 c-158 -43 -268 -163 -303 -332 -19 -88 -8 -293 19 -368
49 -135 140 -223 268 -258 240 -65 455 10 551 191 50 94 52 92 -90 92 l-123 0
-22 -35 c-33 -50 -76 -69 -153 -69 -93 0 -146 30 -182 104 -15 30 -28 71 -30
90 l-3 35 328 3 328 2 -6 83 c-14 167 -50 270 -126 351 -47 51 -134 100 -207
115 -71 15 -185 13 -249 -4z m238 -220 c40 -26 71 -76 84 -132 l7 -33 -196 0
-196 0 6 28 c11 47 40 106 62 125 58 52 165 57 233 12z"/>
<path d="M28789 5817 c-117 -40 -184 -100 -235 -210 -56 -123 -70 -310 -35
-450 25 -97 42 -129 103 -193 173 -183 544 -153 678 56 28 43 70 153 70 181 0
5 -56 9 -124 9 l-124 0 -7 -27 c-11 -46 -51 -99 -88 -116 -72 -35 -173 -15
-213 41 -42 57 -49 92 -49 232 0 128 1 138 27 187 38 71 77 96 155 101 51 4
68 0 97 -17 32 -20 76 -89 76 -119 0 -9 36 -12 126 -12 l127 0 -7 47 c-13 99
-80 201 -163 250 -114 67 -287 83 -414 40z"/>
<path d="M29955 5823 c-36 -12 -67 -34 -112 -80 l-63 -63 0 70 0 70 -115 0
-115 0 0 -475 0 -475 120 0 120 0 0 275 c0 289 7 352 44 407 68 101 250 106
298 8 16 -31 18 -71 18 -362 l0 -328 125 0 126 0 -3 383 c-3 372 -4 383 -25
423 -55 103 -149 156 -283 161 -60 2 -100 -2 -135 -14z"/>
<path d="M30933 5826 c-254 -62 -392 -302 -342 -595 41 -238 221 -385 474
-385 145 0 248 39 343 128 101 95 151 243 139 416 -19 279 -206 452 -487 449
-41 0 -98 -6 -127 -13z m234 -215 c89 -41 129 -140 121 -302 -3 -80 -8 -102
-33 -147 -42 -77 -96 -107 -190 -106 -80 0 -117 16 -163 69 -47 53 -65 129
-60 244 7 138 49 214 139 250 42 17 141 12 186 -8z"/>
<path d="M32531 5829 c-69 -13 -166 -64 -219 -113 -185 -173 -192 -555 -13
-734 167 -167 483 -185 664 -38 118 96 171 220 171 396 0 259 -120 426 -349
485 -64 16 -182 18 -254 4z m246 -231 c28 -19 50 -45 70 -85 26 -54 28 -66 27
-173 0 -127 -10 -163 -65 -225 -77 -88 -261 -80 -328 14 -84 117 -72 361 21
448 42 39 88 53 164 51 57 -3 79 -8 111 -30z"/>
<path d="M33543 5821 c-176 -60 -273 -227 -273 -471 0 -273 121 -445 339 -482
127 -22 232 13 293 96 l30 41 -4 -117 c-3 -99 -6 -121 -24 -144 -42 -57 -69
-69 -163 -72 -101 -4 -142 10 -169 59 l-17 29 -134 0 -133 0 6 -31 c31 -155
190 -249 421 -249 174 0 301 44 379 131 82 92 80 73 84 677 l3 533 -118 -3
-118 -3 -3 -68 -3 -69 -27 41 c-15 22 -43 52 -62 66 -74 55 -208 70 -307 36z
m230 -202 c53 -14 110 -69 137 -132 29 -66 32 -196 6 -273 -28 -86 -107 -144
-193 -144 -43 0 -95 23 -128 57 -47 49 -68 118 -67 223 1 143 48 233 138 265
48 17 59 18 107 4z"/>
<path d="M35160 5826 c-206 -58 -310 -226 -311 -501 0 -169 39 -284 125 -369
118 -119 353 -148 522 -66 105 51 197 173 211 281 l6 39 -121 0 -120 0 -12
-35 c-14 -44 -53 -91 -91 -110 -15 -8 -52 -15 -82 -15 -104 0 -160 66 -179
215 -24 189 38 340 148 361 98 18 170 -19 199 -102 l13 -39 126 -3 c141 -3
134 -7 112 73 -37 142 -129 233 -271 269 -70 19 -211 19 -275 2z"/>
<path d="M36120 5826 c-73 -16 -126 -42 -168 -85 -42 -41 -80 -121 -88 -184
l-7 -47 122 0 c104 0 121 2 121 16 0 30 30 80 59 97 43 25 165 23 208 -3 58
-35 61 -126 5 -149 -15 -6 -95 -22 -178 -35 -164 -26 -230 -49 -282 -99 -55
-53 -75 -101 -80 -198 -4 -72 -1 -93 18 -137 78 -181 344 -214 527 -66 23 19
43 34 46 34 2 0 7 -22 11 -50 l7 -50 139 0 c153 0 160 3 113 53 l-28 28 -5
342 c-6 377 -6 382 -71 446 -41 41 -116 77 -189 91 -70 13 -211 11 -280 -4z
m290 -658 c-25 -86 -106 -142 -208 -142 -59 -1 -66 1 -93 32 -58 65 -29 174
54 201 18 6 66 17 107 25 42 8 91 21 110 28 l35 15 3 -61 c2 -34 -2 -78 -8
-98z"/>
<path d="M34410 5345 l0 -475 125 0 125 0 0 475 0 475 -125 0 -125 0 0 -475z"/>
<path d="M32861 4294 c-44 -69 -81 -127 -81 -130 0 -2 39 -4 88 -4 l87 0 130
130 130 130 -136 0 -137 0 -81 -126z"/>
<path d="M27200 4133 l0 -228 -48 49 c-69 72 -137 100 -237 99 -112 -1 -183
-29 -255 -102 -88 -88 -126 -184 -136 -346 -11 -173 44 -350 137 -444 63 -63
136 -94 235 -99 117 -6 180 14 250 82 l54 52 0 -58 0 -58 120 0 120 0 0 640 0
640 -120 0 -120 0 0 -227z m-127 -307 c47 -19 94 -78 112 -138 21 -72 21 -215
-1 -280 -48 -146 -231 -197 -330 -91 -53 56 -68 107 -68 233 -1 122 8 158 51
218 48 65 156 92 236 58z"/>
<path d="M28670 3720 l0 -641 123 3 122 3 3 638 2 637 -125 0 -125 0 0 -640z"/>
<path d="M29670 3721 l0 -641 135 0 135 0 0 230 0 230 158 0 c195 0 269 11
351 53 77 38 137 106 172 194 20 49 24 76 24 178 0 111 -2 125 -28 180 -36 78
-104 146 -181 182 l-61 28 -352 3 -353 3 0 -640z m605 408 c58 -16 102 -65
110 -122 16 -102 -18 -186 -89 -221 -31 -15 -69 -20 -197 -24 l-159 -5 0 192
0 191 148 0 c81 0 165 -5 187 -11z"/>
<path d="M27960 4049 c-152 -22 -250 -93 -312 -225 -97 -208 -64 -502 74 -643
126 -128 382 -160 563 -70 76 38 163 142 189 227 l7 22 -130 0 c-106 0 -131
-3 -131 -14 0 -23 -67 -74 -105 -82 -62 -11 -141 0 -180 27 -38 26 -80 99 -91
162 l-6 37 326 0 326 0 0 78 c0 93 -28 213 -67 283 -56 104 -166 178 -293 198
-73 12 -91 12 -170 0z m195 -233 c40 -31 74 -94 75 -138 l0 -28 -191 0 -191 0
7 37 c14 74 57 132 115 156 8 4 45 5 81 4 55 -2 72 -7 104 -31z"/>
<path d="M31075 4049 c-80 -12 -195 -69 -238 -119 -85 -99 -121 -211 -120
-371 1 -174 45 -301 133 -383 84 -79 190 -116 330 -116 135 1 238 39 318 119
42 42 102 142 102 170 0 7 -43 11 -122 11 l-123 0 -29 -36 c-36 -45 -80 -64
-148 -64 -116 1 -190 68 -212 193 l-7 37 326 0 325 0 0 83 c0 148 -50 287
-131 368 -51 51 -144 95 -229 108 -73 12 -90 12 -175 0z m162 -210 c55 -20
102 -83 118 -156 l7 -33 -197 0 -197 0 7 33 c22 106 88 167 182 167 28 0 64
-5 80 -11z"/>
<path d="M32172 4030 c-48 -22 -82 -55 -123 -120 l-29 -45 0 83 0 82 -120 0
-120 0 0 -475 0 -475 125 0 125 0 0 273 c0 167 4 287 11 312 14 51 73 110 124
124 22 6 68 11 103 11 l62 0 0 125 0 125 -57 0 c-36 0 -75 -8 -101 -20z"/>
<path d="M32452 3658 l3 -373 26 -55 c31 -67 79 -116 139 -143 62 -28 189 -35
262 -13 61 17 136 70 157 110 23 41 31 31 31 -39 l0 -65 115 0 115 0 0 475 0
475 -125 0 -125 0 0 -305 c0 -327 -3 -350 -53 -403 -36 -38 -72 -52 -139 -52
-76 0 -117 21 -141 73 -15 30 -17 77 -17 361 l0 326 -126 0 -125 0 3 -372z"/>
</g>
</svg>
